<svg width="799" height="107" viewBox="0 0 799 107" fill="none" xmlns="http://www.w3.org/2000/svg">
<rect width="799" height="107" fill="white"/>
<path d="M2.56348 13H1.25098V3.04688H2.56348V13ZM10.5957 8.39941H6.28223V11.9268H11.293V13H4.96973V3.04688H11.2246V4.12695H6.28223V7.32617H10.5957V8.39941ZM16.7549 13H15.4834V4.57129L12.9336 5.50781V4.35938L16.5566 2.99902H16.7549V13ZM24.6162 13H23.3447V4.57129L20.7949 5.50781V4.35938L24.418 2.99902H24.6162V13Z" fill="black"/>
<path d="M120.734 8.60449H116.558V13H115.245V3.04688H121.411V4.12695H116.558V7.53125H120.734V8.60449ZM124.159 13H122.895V5.60352H124.159V13ZM122.792 3.6416C122.792 3.43652 122.854 3.26335 122.977 3.12207C123.104 2.98079 123.291 2.91016 123.537 2.91016C123.783 2.91016 123.97 2.98079 124.098 3.12207C124.225 3.26335 124.289 3.43652 124.289 3.6416C124.289 3.84668 124.225 4.01758 124.098 4.1543C123.97 4.29102 123.783 4.35938 123.537 4.35938C123.291 4.35938 123.104 4.29102 122.977 4.1543C122.854 4.01758 122.792 3.84668 122.792 3.6416ZM129.765 6.73828C129.573 6.70638 129.366 6.69043 129.143 6.69043C128.313 6.69043 127.75 7.04362 127.454 7.75V13H126.189V5.60352H127.42L127.44 6.45801C127.855 5.7972 128.443 5.4668 129.204 5.4668C129.45 5.4668 129.637 5.4987 129.765 5.5625V6.73828ZM133.866 13.1367C132.864 13.1367 132.048 12.8086 131.419 12.1523C130.79 11.4915 130.476 10.6097 130.476 9.50684V9.27441C130.476 8.54069 130.615 7.88672 130.893 7.3125C131.175 6.73372 131.567 6.28255 132.068 5.95898C132.574 5.63086 133.121 5.4668 133.709 5.4668C134.671 5.4668 135.418 5.78353 135.951 6.41699C136.484 7.05046 136.751 7.95736 136.751 9.1377V9.66406H131.74C131.758 10.3932 131.97 10.9834 132.376 11.4346C132.786 11.8812 133.306 12.1045 133.935 12.1045C134.381 12.1045 134.759 12.0133 135.069 11.8311C135.379 11.6488 135.65 11.4072 135.883 11.1064L136.655 11.708C136.035 12.6605 135.106 13.1367 133.866 13.1367ZM133.709 6.50586C133.199 6.50586 132.77 6.69271 132.424 7.06641C132.077 7.43555 131.863 7.95508 131.781 8.625H135.486V8.5293C135.45 7.88672 135.277 7.38997 134.967 7.03906C134.657 6.68359 134.238 6.50586 133.709 6.50586ZM138.843 13V6.58105H137.674V5.60352H138.843V4.84473C138.843 4.05176 139.055 3.4388 139.479 3.00586C139.902 2.57292 140.502 2.35645 141.276 2.35645C141.568 2.35645 141.857 2.39518 142.145 2.47266L142.076 3.49805C141.862 3.45703 141.634 3.43652 141.393 3.43652C140.982 3.43652 140.666 3.55729 140.442 3.79883C140.219 4.03581 140.107 4.3776 140.107 4.82422V5.60352H141.687V6.58105H140.107V13H138.843ZM142.753 9.2334C142.753 8.50879 142.894 7.8571 143.177 7.27832C143.464 6.69954 143.86 6.25293 144.366 5.93848C144.877 5.62402 145.458 5.4668 146.109 5.4668C147.117 5.4668 147.93 5.81543 148.55 6.5127C149.174 7.20996 149.486 8.13737 149.486 9.29492V9.38379C149.486 10.1038 149.347 10.751 149.069 11.3252C148.796 11.8949 148.402 12.3392 147.887 12.6582C147.376 12.9772 146.788 13.1367 146.123 13.1367C145.12 13.1367 144.307 12.7881 143.683 12.0908C143.063 11.3936 142.753 10.4707 142.753 9.32227V9.2334ZM144.024 9.38379C144.024 10.2041 144.214 10.8626 144.592 11.3594C144.975 11.8561 145.485 12.1045 146.123 12.1045C146.766 12.1045 147.276 11.8538 147.654 11.3525C148.033 10.8467 148.222 10.1403 148.222 9.2334C148.222 8.4222 148.028 7.76595 147.641 7.26465C147.258 6.75879 146.747 6.50586 146.109 6.50586C145.485 6.50586 144.981 6.75423 144.599 7.25098C144.216 7.74772 144.024 8.45866 144.024 9.38379ZM153.403 8.30371L155.044 5.60352H156.521L154.101 9.26074L156.596 13H155.133L153.424 10.2314L151.715 13H150.245L152.74 9.26074L150.32 5.60352H151.783L153.403 8.30371Z" fill="black"/>
<path d="M251.915 9.8418C251.792 10.8945 251.402 11.708 250.746 12.2822C250.094 12.8519 249.226 13.1367 248.142 13.1367C246.966 13.1367 246.022 12.7152 245.312 11.8721C244.605 11.029 244.252 9.90104 244.252 8.48828V7.53125C244.252 6.60612 244.416 5.79264 244.744 5.09082C245.077 4.389 245.546 3.85124 246.152 3.47754C246.758 3.09928 247.46 2.91016 248.258 2.91016C249.315 2.91016 250.163 3.20638 250.801 3.79883C251.439 4.38672 251.81 5.20247 251.915 6.24609H250.596C250.482 5.45312 250.233 4.87891 249.851 4.52344C249.472 4.16797 248.941 3.99023 248.258 3.99023C247.419 3.99023 246.761 4.30013 246.282 4.91992C245.808 5.53971 245.571 6.42155 245.571 7.56543V8.5293C245.571 9.60938 245.797 10.4684 246.248 11.1064C246.699 11.7445 247.33 12.0635 248.142 12.0635C248.871 12.0635 249.429 11.8994 249.816 11.5713C250.208 11.2386 250.468 10.6621 250.596 9.8418H251.915ZM254.779 6.49902C255.34 5.81087 256.069 5.4668 256.967 5.4668C258.53 5.4668 259.318 6.34863 259.332 8.1123V13H258.067V8.10547C258.063 7.57227 257.94 7.17806 257.698 6.92285C257.461 6.66764 257.09 6.54004 256.584 6.54004C256.174 6.54004 255.814 6.64941 255.504 6.86816C255.194 7.08691 254.952 7.37402 254.779 7.72949V13H253.515V2.5H254.779V6.49902ZM264.801 6.73828C264.609 6.70638 264.402 6.69043 264.179 6.69043C263.349 6.69043 262.786 7.04362 262.49 7.75V13H261.226V5.60352H262.456L262.477 6.45801C262.891 5.7972 263.479 5.4668 264.24 5.4668C264.486 5.4668 264.673 5.4987 264.801 5.5625V6.73828ZM265.498 9.2334C265.498 8.50879 265.639 7.8571 265.922 7.27832C266.209 6.69954 266.605 6.25293 267.111 5.93848C267.622 5.62402 268.203 5.4668 268.854 5.4668C269.862 5.4668 270.675 5.81543 271.295 6.5127C271.919 7.20996 272.231 8.13737 272.231 9.29492V9.38379C272.231 10.1038 272.092 10.751 271.814 11.3252C271.541 11.8949 271.147 12.3392 270.632 12.6582C270.121 12.9772 269.534 13.1367 268.868 13.1367C267.866 13.1367 267.052 12.7881 266.428 12.0908C265.808 11.3936 265.498 10.4707 265.498 9.32227V9.2334ZM266.77 9.38379C266.77 10.2041 266.959 10.8626 267.337 11.3594C267.72 11.8561 268.23 12.1045 268.868 12.1045C269.511 12.1045 270.021 11.8538 270.399 11.3525C270.778 10.8467 270.967 10.1403 270.967 9.2334C270.967 8.4222 270.773 7.76595 270.386 7.26465C270.003 6.75879 269.493 6.50586 268.854 6.50586C268.23 6.50586 267.727 6.75423 267.344 7.25098C266.961 7.74772 266.77 8.45866 266.77 9.38379ZM275.007 5.60352L275.041 6.42383C275.583 5.78581 276.315 5.4668 277.235 5.4668C278.27 5.4668 278.974 5.86328 279.348 6.65625C279.594 6.30078 279.913 6.01367 280.305 5.79492C280.701 5.57617 281.168 5.4668 281.706 5.4668C283.328 5.4668 284.153 6.32585 284.181 8.04395V13H282.916V8.11914C282.916 7.59049 282.795 7.19629 282.554 6.93652C282.312 6.6722 281.907 6.54004 281.337 6.54004C280.868 6.54004 280.478 6.68132 280.168 6.96387C279.858 7.24186 279.678 7.61784 279.628 8.0918V13H278.356V8.15332C278.356 7.0778 277.83 6.54004 276.777 6.54004C275.948 6.54004 275.381 6.89323 275.075 7.59961V13H273.811V5.60352H275.007ZM289.164 13.1367C288.161 13.1367 287.346 12.8086 286.717 12.1523C286.088 11.4915 285.773 10.6097 285.773 9.50684V9.27441C285.773 8.54069 285.912 7.88672 286.19 7.3125C286.473 6.73372 286.865 6.28255 287.366 5.95898C287.872 5.63086 288.419 5.4668 289.007 5.4668C289.968 5.4668 290.716 5.78353 291.249 6.41699C291.782 7.05046 292.049 7.95736 292.049 9.1377V9.66406H287.038C287.056 10.3932 287.268 10.9834 287.674 11.4346C288.084 11.8812 288.604 12.1045 289.232 12.1045C289.679 12.1045 290.057 12.0133 290.367 11.8311C290.677 11.6488 290.948 11.4072 291.181 11.1064L291.953 11.708C291.333 12.6605 290.404 13.1367 289.164 13.1367ZM289.007 6.50586C288.496 6.50586 288.068 6.69271 287.722 7.06641C287.375 7.43555 287.161 7.95508 287.079 8.625H290.784V8.5293C290.748 7.88672 290.575 7.38997 290.265 7.03906C289.955 6.68359 289.535 6.50586 289.007 6.50586Z" fill="black"/>
<path d="M383.422 8.56348C382.296 8.23991 381.476 7.84342 380.961 7.37402C380.451 6.90007 380.195 6.31673 380.195 5.62402C380.195 4.84017 380.507 4.19303 381.132 3.68262C381.761 3.16764 382.576 2.91016 383.579 2.91016C384.263 2.91016 384.871 3.04232 385.404 3.30664C385.942 3.57096 386.357 3.93555 386.648 4.40039C386.945 4.86523 387.093 5.37337 387.093 5.9248H385.773C385.773 5.32324 385.582 4.85156 385.199 4.50977C384.816 4.16341 384.276 3.99023 383.579 3.99023C382.932 3.99023 382.426 4.13379 382.062 4.4209C381.701 4.70345 381.521 5.09766 381.521 5.60352C381.521 6.00911 381.692 6.35319 382.034 6.63574C382.381 6.91374 382.966 7.16895 383.791 7.40137C384.62 7.63379 385.268 7.89128 385.732 8.17383C386.202 8.45182 386.548 8.77767 386.771 9.15137C386.999 9.52507 387.113 9.96484 387.113 10.4707C387.113 11.2773 386.799 11.9245 386.17 12.4121C385.541 12.8952 384.7 13.1367 383.647 13.1367C382.964 13.1367 382.326 13.0068 381.733 12.7471C381.141 12.4827 380.683 12.1227 380.359 11.667C380.04 11.2113 379.881 10.694 379.881 10.1152H381.2C381.2 10.7168 381.421 11.193 381.863 11.5439C382.31 11.8903 382.905 12.0635 383.647 12.0635C384.34 12.0635 384.871 11.9222 385.24 11.6396C385.609 11.3571 385.794 10.972 385.794 10.4844C385.794 9.99674 385.623 9.62077 385.281 9.35645C384.939 9.08757 384.32 8.82324 383.422 8.56348ZM393.17 13C393.097 12.8542 393.038 12.5944 392.992 12.2207C392.404 12.8314 391.702 13.1367 390.887 13.1367C390.158 13.1367 389.558 12.9316 389.089 12.5215C388.624 12.1068 388.392 11.5827 388.392 10.9492C388.392 10.179 388.683 9.58203 389.267 9.1582C389.854 8.72982 390.679 8.51562 391.741 8.51562H392.972V7.93457C392.972 7.49251 392.84 7.1416 392.575 6.88184C392.311 6.61751 391.921 6.48535 391.406 6.48535C390.955 6.48535 390.577 6.59928 390.271 6.82715C389.966 7.05501 389.813 7.33073 389.813 7.6543H388.542C388.542 7.28516 388.672 6.92969 388.932 6.58789C389.196 6.24154 389.551 5.9681 389.998 5.76758C390.449 5.56706 390.944 5.4668 391.481 5.4668C392.334 5.4668 393.001 5.68099 393.484 6.10938C393.967 6.5332 394.218 7.11882 394.236 7.86621V11.2705C394.236 11.9495 394.323 12.4896 394.496 12.8906V13H393.17ZM391.071 12.0361C391.468 12.0361 391.844 11.9336 392.199 11.7285C392.555 11.5234 392.812 11.2568 392.972 10.9287V9.41113H391.98C390.431 9.41113 389.656 9.86458 389.656 10.7715C389.656 11.168 389.788 11.4779 390.053 11.7012C390.317 11.9245 390.657 12.0361 391.071 12.0361ZM396.841 13V6.58105H395.672V5.60352H396.841V4.84473C396.841 4.05176 397.053 3.4388 397.477 3.00586C397.9 2.57292 398.5 2.35645 399.274 2.35645C399.566 2.35645 399.855 2.39518 400.143 2.47266L400.074 3.49805C399.86 3.45703 399.632 3.43652 399.391 3.43652C398.98 3.43652 398.664 3.55729 398.44 3.79883C398.217 4.03581 398.105 4.3776 398.105 4.82422V5.60352H399.685V6.58105H398.105V13H396.841ZM405.652 13C405.579 12.8542 405.52 12.5944 405.475 12.2207C404.887 12.8314 404.185 13.1367 403.369 13.1367C402.64 13.1367 402.041 12.9316 401.571 12.5215C401.106 12.1068 400.874 11.5827 400.874 10.9492C400.874 10.179 401.166 9.58203 401.749 9.1582C402.337 8.72982 403.162 8.51562 404.224 8.51562H405.454V7.93457C405.454 7.49251 405.322 7.1416 405.058 6.88184C404.793 6.61751 404.404 6.48535 403.889 6.48535C403.438 6.48535 403.059 6.59928 402.754 6.82715C402.449 7.05501 402.296 7.33073 402.296 7.6543H401.024C401.024 7.28516 401.154 6.92969 401.414 6.58789C401.678 6.24154 402.034 5.9681 402.48 5.76758C402.932 5.56706 403.426 5.4668 403.964 5.4668C404.816 5.4668 405.484 5.68099 405.967 6.10938C406.45 6.5332 406.701 7.11882 406.719 7.86621V11.2705C406.719 11.9495 406.805 12.4896 406.979 12.8906V13H405.652ZM403.554 12.0361C403.95 12.0361 404.326 11.9336 404.682 11.7285C405.037 11.5234 405.295 11.2568 405.454 10.9287V9.41113H404.463C402.913 9.41113 402.139 9.86458 402.139 10.7715C402.139 11.168 402.271 11.4779 402.535 11.7012C402.799 11.9245 403.139 12.0361 403.554 12.0361ZM412.276 6.73828C412.085 6.70638 411.878 6.69043 411.654 6.69043C410.825 6.69043 410.262 7.04362 409.966 7.75V13H408.701V5.60352H409.932L409.952 6.45801C410.367 5.7972 410.955 5.4668 411.716 5.4668C411.962 5.4668 412.149 5.4987 412.276 5.5625V6.73828ZM414.819 13H413.555V5.60352H414.819V13ZM413.452 3.6416C413.452 3.43652 413.514 3.26335 413.637 3.12207C413.764 2.98079 413.951 2.91016 414.197 2.91016C414.443 2.91016 414.63 2.98079 414.758 3.12207C414.885 3.26335 414.949 3.43652 414.949 3.6416C414.949 3.84668 414.885 4.01758 414.758 4.1543C414.63 4.29102 414.443 4.35938 414.197 4.35938C413.951 4.35938 413.764 4.29102 413.637 4.1543C413.514 4.01758 413.452 3.84668 413.452 3.6416ZM422.216 3.04688L425.47 11.168L428.724 3.04688H430.426V13H429.113V9.12402L429.236 4.94043L425.969 13H424.964L421.703 4.96094L421.833 9.12402V13H420.521V3.04688H422.216ZM432.21 9.2334C432.21 8.50879 432.351 7.8571 432.634 7.27832C432.921 6.69954 433.317 6.25293 433.823 5.93848C434.334 5.62402 434.915 5.4668 435.566 5.4668C436.574 5.4668 437.387 5.81543 438.007 6.5127C438.631 7.20996 438.943 8.13737 438.943 9.29492V9.38379C438.943 10.1038 438.804 10.751 438.526 11.3252C438.253 11.8949 437.859 12.3392 437.344 12.6582C436.833 12.9772 436.245 13.1367 435.58 13.1367C434.577 13.1367 433.764 12.7881 433.14 12.0908C432.52 11.3936 432.21 10.4707 432.21 9.32227V9.2334ZM433.481 9.38379C433.481 10.2041 433.671 10.8626 434.049 11.3594C434.432 11.8561 434.942 12.1045 435.58 12.1045C436.223 12.1045 436.733 11.8538 437.111 11.3525C437.49 10.8467 437.679 10.1403 437.679 9.2334C437.679 8.4222 437.485 7.76595 437.098 7.26465C436.715 6.75879 436.204 6.50586 435.566 6.50586C434.942 6.50586 434.438 6.75423 434.056 7.25098C433.673 7.74772 433.481 8.45866 433.481 9.38379ZM446.791 9.38379C446.791 10.514 446.531 11.4232 446.012 12.1113C445.492 12.7949 444.795 13.1367 443.92 13.1367C442.986 13.1367 442.263 12.8063 441.753 12.1455L441.691 13H440.529V2.5H441.794V6.41699C442.304 5.78353 443.008 5.4668 443.906 5.4668C444.804 5.4668 445.508 5.80632 446.019 6.48535C446.534 7.16439 446.791 8.09408 446.791 9.27441V9.38379ZM445.526 9.24023C445.526 8.37891 445.36 7.71354 445.027 7.24414C444.695 6.77474 444.216 6.54004 443.592 6.54004C442.758 6.54004 442.159 6.92741 441.794 7.70215V10.9014C442.181 11.6761 442.785 12.0635 443.605 12.0635C444.212 12.0635 444.683 11.8288 445.021 11.3594C445.358 10.89 445.526 10.1836 445.526 9.24023ZM449.765 13H448.5V5.60352H449.765V13ZM448.397 3.6416C448.397 3.43652 448.459 3.26335 448.582 3.12207C448.71 2.98079 448.896 2.91016 449.143 2.91016C449.389 2.91016 449.576 2.98079 449.703 3.12207C449.831 3.26335 449.895 3.43652 449.895 3.6416C449.895 3.84668 449.831 4.01758 449.703 4.1543C449.576 4.29102 449.389 4.35938 449.143 4.35938C448.896 4.35938 448.71 4.29102 448.582 4.1543C448.459 4.01758 448.397 3.84668 448.397 3.6416ZM453.169 13H451.904V2.5H453.169V13ZM458.269 13.1367C457.266 13.1367 456.45 12.8086 455.821 12.1523C455.192 11.4915 454.878 10.6097 454.878 9.50684V9.27441C454.878 8.54069 455.017 7.88672 455.295 7.3125C455.577 6.73372 455.969 6.28255 456.471 5.95898C456.977 5.63086 457.523 5.4668 458.111 5.4668C459.073 5.4668 459.82 5.78353 460.354 6.41699C460.887 7.05046 461.153 7.95736 461.153 9.1377V9.66406H456.143C456.161 10.3932 456.373 10.9834 456.778 11.4346C457.188 11.8812 457.708 12.1045 458.337 12.1045C458.784 12.1045 459.162 12.0133 459.472 11.8311C459.782 11.6488 460.053 11.4072 460.285 11.1064L461.058 11.708C460.438 12.6605 459.508 13.1367 458.269 13.1367ZM458.111 6.50586C457.601 6.50586 457.173 6.69271 456.826 7.06641C456.48 7.43555 456.266 7.95508 456.184 8.625H459.889V8.5293C459.852 7.88672 459.679 7.38997 459.369 7.03906C459.059 6.68359 458.64 6.50586 458.111 6.50586Z" fill="black"/>
<path d="M554.972 10.4023H550.802L549.865 13H548.512L552.312 3.04688H553.461L557.269 13H555.922L554.972 10.4023ZM551.198 9.32227H554.582L552.887 4.66699L551.198 9.32227ZM559.606 5.60352L559.647 6.5332C560.213 5.82227 560.951 5.4668 561.862 5.4668C563.425 5.4668 564.214 6.34863 564.228 8.1123V13H562.963V8.10547C562.958 7.57227 562.835 7.17806 562.594 6.92285C562.357 6.66764 561.985 6.54004 561.479 6.54004C561.069 6.54004 560.709 6.64941 560.399 6.86816C560.09 7.08691 559.848 7.37402 559.675 7.72949V13H558.41V5.60352H559.606ZM565.827 9.24023C565.827 8.10547 566.096 7.19401 566.634 6.50586C567.172 5.81315 567.876 5.4668 568.746 5.4668C569.612 5.4668 570.298 5.76302 570.804 6.35547V2.5H572.068V13H570.906L570.845 12.207C570.339 12.8268 569.635 13.1367 568.732 13.1367C567.876 13.1367 567.176 12.7858 566.634 12.084C566.096 11.3822 565.827 10.4661 565.827 9.33594V9.24023ZM567.092 9.38379C567.092 10.2223 567.265 10.8786 567.611 11.3525C567.958 11.8265 568.436 12.0635 569.047 12.0635C569.849 12.0635 570.435 11.7035 570.804 10.9834V7.58594C570.425 6.88867 569.844 6.54004 569.061 6.54004C568.441 6.54004 567.958 6.7793 567.611 7.25781C567.265 7.73633 567.092 8.44499 567.092 9.38379ZM577.612 6.73828C577.421 6.70638 577.214 6.69043 576.99 6.69043C576.161 6.69043 575.598 7.04362 575.302 7.75V13H574.037V5.60352H575.268L575.288 6.45801C575.703 5.7972 576.291 5.4668 577.052 5.4668C577.298 5.4668 577.485 5.4987 577.612 5.5625V6.73828ZM578.31 9.2334C578.31 8.50879 578.451 7.8571 578.733 7.27832C579.021 6.69954 579.417 6.25293 579.923 5.93848C580.433 5.62402 581.014 5.4668 581.666 5.4668C582.673 5.4668 583.487 5.81543 584.106 6.5127C584.731 7.20996 585.043 8.13737 585.043 9.29492V9.38379C585.043 10.1038 584.904 10.751 584.626 11.3252C584.353 11.8949 583.958 12.3392 583.443 12.6582C582.933 12.9772 582.345 13.1367 581.68 13.1367C580.677 13.1367 579.864 12.7881 579.239 12.0908C578.619 11.3936 578.31 10.4707 578.31 9.32227V9.2334ZM579.581 9.38379C579.581 10.2041 579.77 10.8626 580.148 11.3594C580.531 11.8561 581.042 12.1045 581.68 12.1045C582.322 12.1045 582.833 11.8538 583.211 11.3525C583.589 10.8467 583.778 10.1403 583.778 9.2334C583.778 8.4222 583.585 7.76595 583.197 7.26465C582.814 6.75879 582.304 6.50586 581.666 6.50586C581.042 6.50586 580.538 6.75423 580.155 7.25098C579.772 7.74772 579.581 8.45866 579.581 9.38379ZM588.003 13H586.738V5.60352H588.003V13ZM586.636 3.6416C586.636 3.43652 586.697 3.26335 586.82 3.12207C586.948 2.98079 587.135 2.91016 587.381 2.91016C587.627 2.91016 587.814 2.98079 587.941 3.12207C588.069 3.26335 588.133 3.43652 588.133 3.6416C588.133 3.84668 588.069 4.01758 587.941 4.1543C587.814 4.29102 587.627 4.35938 587.381 4.35938C587.135 4.35938 586.948 4.29102 586.82 4.1543C586.697 4.01758 586.636 3.84668 586.636 3.6416ZM589.726 9.24023C589.726 8.10547 589.994 7.19401 590.532 6.50586C591.07 5.81315 591.774 5.4668 592.645 5.4668C593.51 5.4668 594.196 5.76302 594.702 6.35547V2.5H595.967V13H594.805L594.743 12.207C594.237 12.8268 593.533 13.1367 592.631 13.1367C591.774 13.1367 591.075 12.7858 590.532 12.084C589.994 11.3822 589.726 10.4661 589.726 9.33594V9.24023ZM590.99 9.38379C590.99 10.2223 591.163 10.8786 591.51 11.3525C591.856 11.8265 592.335 12.0635 592.945 12.0635C593.747 12.0635 594.333 11.7035 594.702 10.9834V7.58594C594.324 6.88867 593.743 6.54004 592.959 6.54004C592.339 6.54004 591.856 6.7793 591.51 7.25781C591.163 7.73633 590.99 8.44499 590.99 9.38379ZM601.606 13V3.04688H604.86C605.94 3.04688 606.752 3.27018 607.294 3.7168C607.841 4.16341 608.114 4.82422 608.114 5.69922C608.114 6.16406 607.982 6.5765 607.718 6.93652C607.453 7.29199 607.093 7.56771 606.638 7.76367C607.175 7.91406 607.599 8.20117 607.909 8.625C608.224 9.04427 608.381 9.54557 608.381 10.1289C608.381 11.0221 608.091 11.724 607.513 12.2344C606.934 12.7448 606.116 13 605.059 13H601.606ZM602.919 8.34473V11.9268H605.086C605.697 11.9268 606.177 11.7695 606.528 11.4551C606.884 11.1361 607.062 10.6986 607.062 10.1426C607.062 8.94401 606.41 8.34473 605.106 8.34473H602.919ZM602.919 7.29199H604.901C605.476 7.29199 605.934 7.14844 606.275 6.86133C606.622 6.57422 606.795 6.18457 606.795 5.69238C606.795 5.14551 606.635 4.74902 606.316 4.50293C605.997 4.25228 605.512 4.12695 604.86 4.12695H602.919V7.29199ZM613.706 6.73828C613.515 6.70638 613.307 6.69043 613.084 6.69043C612.255 6.69043 611.692 7.04362 611.396 7.75V13H610.131V5.60352H611.361L611.382 6.45801C611.797 5.7972 612.384 5.4668 613.146 5.4668C613.392 5.4668 613.578 5.4987 613.706 5.5625V6.73828ZM614.403 9.2334C614.403 8.50879 614.545 7.8571 614.827 7.27832C615.114 6.69954 615.511 6.25293 616.017 5.93848C616.527 5.62402 617.108 5.4668 617.76 5.4668C618.767 5.4668 619.58 5.81543 620.2 6.5127C620.825 7.20996 621.137 8.13737 621.137 9.29492V9.38379C621.137 10.1038 620.998 10.751 620.72 11.3252C620.446 11.8949 620.052 12.3392 619.537 12.6582C619.027 12.9772 618.439 13.1367 617.773 13.1367C616.771 13.1367 615.957 12.7881 615.333 12.0908C614.713 11.3936 614.403 10.4707 614.403 9.32227V9.2334ZM615.675 9.38379C615.675 10.2041 615.864 10.8626 616.242 11.3594C616.625 11.8561 617.135 12.1045 617.773 12.1045C618.416 12.1045 618.926 11.8538 619.305 11.3525C619.683 10.8467 619.872 10.1403 619.872 9.2334C619.872 8.4222 619.678 7.76595 619.291 7.26465C618.908 6.75879 618.398 6.50586 617.76 6.50586C617.135 6.50586 616.632 6.75423 616.249 7.25098C615.866 7.74772 615.675 8.45866 615.675 9.38379ZM629.271 11.2568L630.693 5.60352H631.958L629.805 13H628.779L626.981 7.39453L625.231 13H624.206L622.06 5.60352H623.317L624.773 11.1406L626.496 5.60352H627.515L629.271 11.2568ZM637.557 11.0381C637.557 10.6963 637.427 10.432 637.167 10.2451C636.912 10.0537 636.463 9.88965 635.82 9.75293C635.182 9.61621 634.674 9.45215 634.296 9.26074C633.922 9.06934 633.644 8.84147 633.462 8.57715C633.284 8.31283 633.195 7.99837 633.195 7.63379C633.195 7.02767 633.451 6.51497 633.961 6.0957C634.476 5.67643 635.132 5.4668 635.93 5.4668C636.768 5.4668 637.447 5.68327 637.967 6.11621C638.491 6.54915 638.753 7.10286 638.753 7.77734H637.481C637.481 7.43099 637.333 7.13249 637.037 6.88184C636.745 6.63118 636.376 6.50586 635.93 6.50586C635.469 6.50586 635.109 6.60612 634.85 6.80664C634.59 7.00716 634.46 7.26921 634.46 7.59277C634.46 7.89811 634.581 8.12826 634.822 8.2832C635.064 8.43815 635.499 8.58626 636.128 8.72754C636.761 8.86882 637.274 9.03743 637.666 9.2334C638.058 9.42936 638.347 9.66634 638.534 9.94434C638.726 10.2178 638.821 10.5527 638.821 10.9492C638.821 11.61 638.557 12.141 638.028 12.542C637.5 12.9385 636.814 13.1367 635.971 13.1367C635.378 13.1367 634.854 13.0319 634.398 12.8223C633.943 12.6126 633.585 12.321 633.325 11.9473C633.07 11.569 632.942 11.1611 632.942 10.7236H634.207C634.23 11.1475 634.398 11.4847 634.713 11.7354C635.032 11.9814 635.451 12.1045 635.971 12.1045C636.449 12.1045 636.832 12.0088 637.119 11.8174C637.411 11.6214 637.557 11.3617 637.557 11.0381ZM643.538 13.1367C642.535 13.1367 641.72 12.8086 641.091 12.1523C640.462 11.4915 640.147 10.6097 640.147 9.50684V9.27441C640.147 8.54069 640.286 7.88672 640.564 7.3125C640.847 6.73372 641.239 6.28255 641.74 5.95898C642.246 5.63086 642.793 5.4668 643.381 5.4668C644.342 5.4668 645.09 5.78353 645.623 6.41699C646.156 7.05046 646.423 7.95736 646.423 9.1377V9.66406H641.412C641.43 10.3932 641.642 10.9834 642.048 11.4346C642.458 11.8812 642.978 12.1045 643.606 12.1045C644.053 12.1045 644.431 12.0133 644.741 11.8311C645.051 11.6488 645.322 11.4072 645.555 11.1064L646.327 11.708C645.707 12.6605 644.778 13.1367 643.538 13.1367ZM643.381 6.50586C642.87 6.50586 642.442 6.69271 642.096 7.06641C641.749 7.43555 641.535 7.95508 641.453 8.625H645.158V8.5293C645.122 7.88672 644.949 7.38997 644.639 7.03906C644.329 6.68359 643.91 6.50586 643.381 6.50586ZM651.468 6.73828C651.276 6.70638 651.069 6.69043 650.846 6.69043C650.016 6.69043 649.453 7.04362 649.157 7.75V13H647.893V5.60352H649.123L649.144 6.45801C649.558 5.7972 650.146 5.4668 650.907 5.4668C651.153 5.4668 651.34 5.4987 651.468 5.5625V6.73828Z" fill="black"/>
<path d="M747.361 9.8418C747.238 10.8945 746.849 11.708 746.192 12.2822C745.541 12.8519 744.673 13.1367 743.588 13.1367C742.412 13.1367 741.469 12.7152 740.758 11.8721C740.051 11.029 739.698 9.90104 739.698 8.48828V7.53125C739.698 6.60612 739.862 5.79264 740.19 5.09082C740.523 4.389 740.993 3.85124 741.599 3.47754C742.205 3.09928 742.907 2.91016 743.704 2.91016C744.761 2.91016 745.609 3.20638 746.247 3.79883C746.885 4.38672 747.257 5.20247 747.361 6.24609H746.042C745.928 5.45312 745.68 4.87891 745.297 4.52344C744.919 4.16797 744.388 3.99023 743.704 3.99023C742.866 3.99023 742.207 4.30013 741.729 4.91992C741.255 5.53971 741.018 6.42155 741.018 7.56543V8.5293C741.018 9.60938 741.243 10.4684 741.694 11.1064C742.146 11.7445 742.777 12.0635 743.588 12.0635C744.317 12.0635 744.875 11.8994 745.263 11.5713C745.655 11.2386 745.914 10.6621 746.042 9.8418H747.361ZM753.527 13C753.454 12.8542 753.395 12.5944 753.35 12.2207C752.762 12.8314 752.06 13.1367 751.244 13.1367C750.515 13.1367 749.916 12.9316 749.446 12.5215C748.981 12.1068 748.749 11.5827 748.749 10.9492C748.749 10.179 749.041 9.58203 749.624 9.1582C750.212 8.72982 751.037 8.51562 752.099 8.51562H753.329V7.93457C753.329 7.49251 753.197 7.1416 752.933 6.88184C752.668 6.61751 752.279 6.48535 751.764 6.48535C751.312 6.48535 750.934 6.59928 750.629 6.82715C750.324 7.05501 750.171 7.33073 750.171 7.6543H748.899C748.899 7.28516 749.029 6.92969 749.289 6.58789C749.553 6.24154 749.909 5.9681 750.355 5.76758C750.807 5.56706 751.301 5.4668 751.839 5.4668C752.691 5.4668 753.359 5.68099 753.842 6.10938C754.325 6.5332 754.576 7.11882 754.594 7.86621V11.2705C754.594 11.9495 754.68 12.4896 754.854 12.8906V13H753.527ZM751.429 12.0361C751.825 12.0361 752.201 11.9336 752.557 11.7285C752.912 11.5234 753.17 11.2568 753.329 10.9287V9.41113H752.338C750.788 9.41113 750.014 9.86458 750.014 10.7715C750.014 11.168 750.146 11.4779 750.41 11.7012C750.674 11.9245 751.014 12.0361 751.429 12.0361ZM762.824 9.38379C762.824 10.5094 762.567 11.4163 762.052 12.1045C761.537 12.7926 760.84 13.1367 759.96 13.1367C759.062 13.1367 758.356 12.8519 757.841 12.2822V15.8438H756.576V5.60352H757.731L757.793 6.42383C758.308 5.78581 759.023 5.4668 759.939 5.4668C760.828 5.4668 761.53 5.80176 762.045 6.47168C762.564 7.1416 762.824 8.07357 762.824 9.26758V9.38379ZM761.56 9.24023C761.56 8.40625 761.382 7.74772 761.026 7.26465C760.671 6.78158 760.183 6.54004 759.563 6.54004C758.798 6.54004 758.224 6.87956 757.841 7.55859V11.0928C758.219 11.7673 758.798 12.1045 759.577 12.1045C760.183 12.1045 760.664 11.8652 761.02 11.3867C761.38 10.9036 761.56 10.1882 761.56 9.24023ZM769.004 13C768.931 12.8542 768.872 12.5944 768.826 12.2207C768.238 12.8314 767.536 13.1367 766.721 13.1367C765.992 13.1367 765.392 12.9316 764.923 12.5215C764.458 12.1068 764.226 11.5827 764.226 10.9492C764.226 10.179 764.517 9.58203 765.101 9.1582C765.688 8.72982 766.513 8.51562 767.575 8.51562H768.806V7.93457C768.806 7.49251 768.674 7.1416 768.409 6.88184C768.145 6.61751 767.755 6.48535 767.24 6.48535C766.789 6.48535 766.411 6.59928 766.105 6.82715C765.8 7.05501 765.647 7.33073 765.647 7.6543H764.376C764.376 7.28516 764.506 6.92969 764.766 6.58789C765.03 6.24154 765.385 5.9681 765.832 5.76758C766.283 5.56706 766.778 5.4668 767.315 5.4668C768.168 5.4668 768.835 5.68099 769.318 6.10938C769.801 6.5332 770.052 7.11882 770.07 7.86621V11.2705C770.07 11.9495 770.157 12.4896 770.33 12.8906V13H769.004ZM766.905 12.0361C767.302 12.0361 767.678 11.9336 768.033 11.7285C768.389 11.5234 768.646 11.2568 768.806 10.9287V9.41113H767.814C766.265 9.41113 765.49 9.86458 765.49 10.7715C765.49 11.168 765.622 11.4779 765.887 11.7012C766.151 11.9245 766.491 12.0361 766.905 12.0361ZM775.02 12.1045C775.471 12.1045 775.865 11.9678 776.202 11.6943C776.539 11.4209 776.726 11.0791 776.763 10.6689H777.959C777.936 11.0928 777.79 11.4961 777.521 11.8789C777.253 12.2617 776.893 12.5671 776.441 12.7949C775.995 13.0228 775.521 13.1367 775.02 13.1367C774.012 13.1367 773.21 12.8018 772.613 12.1318C772.021 11.4574 771.725 10.5368 771.725 9.37012V9.1582C771.725 8.43815 771.857 7.79785 772.121 7.2373C772.385 6.67676 772.764 6.24154 773.256 5.93164C773.753 5.62174 774.338 5.4668 775.013 5.4668C775.842 5.4668 776.53 5.71517 777.077 6.21191C777.629 6.70866 777.923 7.35352 777.959 8.14648H776.763C776.726 7.66797 776.544 7.27604 776.216 6.9707C775.892 6.66081 775.491 6.50586 775.013 6.50586C774.37 6.50586 773.871 6.73828 773.516 7.20312C773.165 7.66341 772.989 8.33105 772.989 9.20605V9.44531C772.989 10.2975 773.165 10.9538 773.516 11.4141C773.867 11.8743 774.368 12.1045 775.02 12.1045ZM780.755 13H779.49V5.60352H780.755V13ZM779.388 3.6416C779.388 3.43652 779.449 3.26335 779.572 3.12207C779.7 2.98079 779.887 2.91016 780.133 2.91016C780.379 2.91016 780.566 2.98079 780.693 3.12207C780.821 3.26335 780.885 3.43652 780.885 3.6416C780.885 3.84668 780.821 4.01758 780.693 4.1543C780.566 4.29102 780.379 4.35938 780.133 4.35938C779.887 4.35938 779.7 4.29102 779.572 4.1543C779.449 4.01758 779.388 3.84668 779.388 3.6416ZM784.501 3.8125V5.60352H785.882V6.58105H784.501V11.168C784.501 11.4642 784.562 11.6875 784.686 11.8379C784.809 11.9837 785.018 12.0566 785.314 12.0566C785.46 12.0566 785.661 12.0293 785.916 11.9746V13C785.583 13.0911 785.26 13.1367 784.945 13.1367C784.38 13.1367 783.954 12.9658 783.667 12.624C783.38 12.2822 783.236 11.7969 783.236 11.168V6.58105H781.89V5.60352H783.236V3.8125H784.501ZM786.894 9.2334C786.894 8.50879 787.035 7.8571 787.317 7.27832C787.604 6.69954 788.001 6.25293 788.507 5.93848C789.017 5.62402 789.598 5.4668 790.25 5.4668C791.257 5.4668 792.071 5.81543 792.69 6.5127C793.315 7.20996 793.627 8.13737 793.627 9.29492V9.38379C793.627 10.1038 793.488 10.751 793.21 11.3252C792.937 11.8949 792.542 12.3392 792.027 12.6582C791.517 12.9772 790.929 13.1367 790.264 13.1367C789.261 13.1367 788.448 12.7881 787.823 12.0908C787.203 11.3936 786.894 10.4707 786.894 9.32227V9.2334ZM788.165 9.38379C788.165 10.2041 788.354 10.8626 788.732 11.3594C789.115 11.8561 789.626 12.1045 790.264 12.1045C790.906 12.1045 791.417 11.8538 791.795 11.3525C792.173 10.8467 792.362 10.1403 792.362 9.2334C792.362 8.4222 792.169 7.76595 791.781 7.26465C791.398 6.75879 790.888 6.50586 790.25 6.50586C789.626 6.50586 789.122 6.75423 788.739 7.25098C788.356 7.74772 788.165 8.45866 788.165 9.38379ZM798.788 6.73828C798.597 6.70638 798.389 6.69043 798.166 6.69043C797.337 6.69043 796.774 7.04362 796.478 7.75V13H795.213V5.60352H796.443L796.464 6.45801C796.879 5.7972 797.466 5.4668 798.228 5.4668C798.474 5.4668 798.66 5.4987 798.788 5.5625V6.73828Z" fill="black"/>
<path d="M1.00391 100.24C1.00391 99.0872 1.27051 98.1712 1.80371 97.4922C2.33691 96.8086 3.04329 96.4668 3.92285 96.4668C4.8252 96.4668 5.5293 96.7858 6.03516 97.4238L6.09668 96.6035H7.25195V103.822C7.25195 104.779 6.96712 105.534 6.39746 106.085C5.83236 106.636 5.07129 106.912 4.11426 106.912C3.58105 106.912 3.05924 106.798 2.54883 106.57C2.03841 106.342 1.64876 106.03 1.37988 105.634L2.03613 104.875C2.57845 105.545 3.24154 105.88 4.02539 105.88C4.64062 105.88 5.11914 105.707 5.46094 105.36C5.80729 105.014 5.98047 104.526 5.98047 103.897V103.262C5.47461 103.845 4.78418 104.137 3.90918 104.137C3.04329 104.137 2.34147 103.788 1.80371 103.091C1.27051 102.394 1.00391 101.443 1.00391 100.24ZM2.27539 100.384C2.27539 101.218 2.44629 101.874 2.78809 102.353C3.12988 102.826 3.6084 103.063 4.22363 103.063C5.02116 103.063 5.60677 102.701 5.98047 101.977V98.5996C5.5931 97.8932 5.01204 97.54 4.2373 97.54C3.62207 97.54 3.14128 97.7793 2.79492 98.2578C2.44857 98.7363 2.27539 99.445 2.27539 100.384ZM12.7412 97.7383C12.5498 97.7064 12.3424 97.6904 12.1191 97.6904C11.2897 97.6904 10.7269 98.0436 10.4307 98.75V104H9.16602V96.6035H10.3965L10.417 97.458C10.8317 96.7972 11.4196 96.4668 12.1807 96.4668C12.4268 96.4668 12.6136 96.4987 12.7412 96.5625V97.7383ZM18.2031 104C18.1302 103.854 18.071 103.594 18.0254 103.221C17.4375 103.831 16.7357 104.137 15.9199 104.137C15.1908 104.137 14.5915 103.932 14.1221 103.521C13.6572 103.107 13.4248 102.583 13.4248 101.949C13.4248 101.179 13.7165 100.582 14.2998 100.158C14.8877 99.7298 15.7126 99.5156 16.7744 99.5156H18.0049V98.9346C18.0049 98.4925 17.8727 98.1416 17.6084 97.8818C17.3441 97.6175 16.9544 97.4854 16.4395 97.4854C15.9883 97.4854 15.61 97.5993 15.3047 97.8271C14.9993 98.055 14.8467 98.3307 14.8467 98.6543H13.5752C13.5752 98.2852 13.7051 97.9297 13.9648 97.5879C14.2292 97.2415 14.5846 96.9681 15.0312 96.7676C15.4824 96.5671 15.9769 96.4668 16.5146 96.4668C17.3669 96.4668 18.0345 96.681 18.5176 97.1094C19.0007 97.5332 19.2513 98.1188 19.2695 98.8662V102.271C19.2695 102.95 19.3561 103.49 19.5293 103.891V104H18.2031ZM16.1045 103.036C16.501 103.036 16.877 102.934 17.2324 102.729C17.5879 102.523 17.8454 102.257 18.0049 101.929V100.411H17.0137C15.4642 100.411 14.6895 100.865 14.6895 101.771C14.6895 102.168 14.8216 102.478 15.0859 102.701C15.3503 102.924 15.6898 103.036 16.1045 103.036ZM24.2188 103.104C24.6699 103.104 25.0641 102.968 25.4014 102.694C25.7386 102.421 25.9255 102.079 25.9619 101.669H27.1582C27.1354 102.093 26.9896 102.496 26.7207 102.879C26.4518 103.262 26.0918 103.567 25.6406 103.795C25.194 104.023 24.7201 104.137 24.2188 104.137C23.2116 104.137 22.4095 103.802 21.8125 103.132C21.2201 102.457 20.9238 101.537 20.9238 100.37V100.158C20.9238 99.4382 21.056 98.7979 21.3203 98.2373C21.5846 97.6768 21.9629 97.2415 22.4551 96.9316C22.9518 96.6217 23.5374 96.4668 24.2119 96.4668C25.0413 96.4668 25.7295 96.7152 26.2764 97.2119C26.8278 97.7087 27.1217 98.3535 27.1582 99.1465H25.9619C25.9255 98.668 25.7432 98.276 25.415 97.9707C25.0915 97.6608 24.6904 97.5059 24.2119 97.5059C23.5693 97.5059 23.0703 97.7383 22.7148 98.2031C22.3639 98.6634 22.1885 99.3311 22.1885 100.206V100.445C22.1885 101.298 22.3639 101.954 22.7148 102.414C23.0658 102.874 23.5671 103.104 24.2188 103.104ZM31.6494 104.137C30.6468 104.137 29.8311 103.809 29.2021 103.152C28.5732 102.492 28.2588 101.61 28.2588 100.507V100.274C28.2588 99.5407 28.3978 98.8867 28.6758 98.3125C28.9583 97.7337 29.3503 97.2826 29.8516 96.959C30.3574 96.6309 30.9043 96.4668 31.4922 96.4668C32.4538 96.4668 33.2012 96.7835 33.7344 97.417C34.2676 98.0505 34.5342 98.9574 34.5342 100.138V100.664H29.5234C29.5417 101.393 29.7536 101.983 30.1592 102.435C30.5693 102.881 31.0889 103.104 31.7178 103.104C32.1644 103.104 32.5426 103.013 32.8525 102.831C33.1624 102.649 33.4336 102.407 33.666 102.106L34.4385 102.708C33.8187 103.66 32.889 104.137 31.6494 104.137ZM31.4922 97.5059C30.9818 97.5059 30.5534 97.6927 30.207 98.0664C29.8607 98.4355 29.6465 98.9551 29.5645 99.625H33.2695V99.5293C33.2331 98.8867 33.0599 98.39 32.75 98.0391C32.4401 97.6836 32.0208 97.5059 31.4922 97.5059ZM36.626 104V97.5811H35.457V96.6035H36.626V95.8447C36.626 95.0518 36.8379 94.4388 37.2617 94.0059C37.6855 93.5729 38.2848 93.3564 39.0596 93.3564C39.3512 93.3564 39.6406 93.3952 39.9277 93.4727L39.8594 94.498C39.6452 94.457 39.4173 94.4365 39.1758 94.4365C38.7656 94.4365 38.4489 94.5573 38.2256 94.7988C38.0023 95.0358 37.8906 95.3776 37.8906 95.8242V96.6035H39.4697V97.5811H37.8906V104H36.626ZM45.4375 103.269C44.9453 103.847 44.223 104.137 43.2705 104.137C42.4821 104.137 41.8805 103.909 41.4658 103.453C41.0557 102.993 40.8483 102.314 40.8438 101.416V96.6035H42.1084V101.382C42.1084 102.503 42.5641 103.063 43.4756 103.063C44.4417 103.063 45.0843 102.703 45.4033 101.983V96.6035H46.668V104H45.4648L45.4375 103.269ZM49.9697 104H48.7051V93.5H49.9697V104ZM55.165 100.24C55.165 99.1055 55.4339 98.194 55.9717 97.5059C56.5094 96.8132 57.2135 96.4668 58.084 96.4668C58.9499 96.4668 59.6357 96.763 60.1416 97.3555V93.5H61.4062V104H60.2441L60.1826 103.207C59.6768 103.827 58.9727 104.137 58.0703 104.137C57.2135 104.137 56.514 103.786 55.9717 103.084C55.4339 102.382 55.165 101.466 55.165 100.336V100.24ZM56.4297 100.384C56.4297 101.222 56.6029 101.879 56.9492 102.353C57.2956 102.826 57.7741 103.063 58.3848 103.063C59.1868 103.063 59.7725 102.703 60.1416 101.983V98.5859C59.7633 97.8887 59.1823 97.54 58.3984 97.54C57.7786 97.54 57.2956 97.7793 56.9492 98.2578C56.6029 98.7363 56.4297 99.445 56.4297 100.384ZM66.4443 104.137C65.4417 104.137 64.626 103.809 63.9971 103.152C63.3682 102.492 63.0537 101.61 63.0537 100.507V100.274C63.0537 99.5407 63.1927 98.8867 63.4707 98.3125C63.7533 97.7337 64.1452 97.2826 64.6465 96.959C65.1523 96.6309 65.6992 96.4668 66.2871 96.4668C67.2487 96.4668 67.9961 96.7835 68.5293 97.417C69.0625 98.0505 69.3291 98.9574 69.3291 100.138V100.664H64.3184C64.3366 101.393 64.5485 101.983 64.9541 102.435C65.3643 102.881 65.8838 103.104 66.5127 103.104C66.9593 103.104 67.3376 103.013 67.6475 102.831C67.9574 102.649 68.2285 102.407 68.4609 102.106L69.2334 102.708C68.6136 103.66 67.6839 104.137 66.4443 104.137ZM66.2871 97.5059C65.7767 97.5059 65.3483 97.6927 65.002 98.0664C64.6556 98.4355 64.4414 98.9551 64.3594 99.625H68.0645V99.5293C68.028 98.8867 67.8548 98.39 67.5449 98.0391C67.235 97.6836 66.8158 97.5059 66.2871 97.5059ZM70.498 100.24C70.498 99.0872 70.7646 98.1712 71.2979 97.4922C71.8311 96.8086 72.5374 96.4668 73.417 96.4668C74.3193 96.4668 75.0234 96.7858 75.5293 97.4238L75.5908 96.6035H76.7461V103.822C76.7461 104.779 76.4613 105.534 75.8916 106.085C75.3265 106.636 74.5654 106.912 73.6084 106.912C73.0752 106.912 72.5534 106.798 72.043 106.57C71.5326 106.342 71.1429 106.03 70.874 105.634L71.5303 104.875C72.0726 105.545 72.7357 105.88 73.5195 105.88C74.1348 105.88 74.6133 105.707 74.9551 105.36C75.3014 105.014 75.4746 104.526 75.4746 103.897V103.262C74.9688 103.845 74.2783 104.137 73.4033 104.137C72.5374 104.137 71.8356 103.788 71.2979 103.091C70.7646 102.394 70.498 101.443 70.498 100.24ZM71.7695 100.384C71.7695 101.218 71.9404 101.874 72.2822 102.353C72.624 102.826 73.1025 103.063 73.7178 103.063C74.5153 103.063 75.1009 102.701 75.4746 101.977V98.5996C75.0872 97.8932 74.5062 97.54 73.7314 97.54C73.1162 97.54 72.6354 97.7793 72.2891 98.2578C71.9427 98.7363 71.7695 99.445 71.7695 100.384ZM82.2354 97.7383C82.0439 97.7064 81.8366 97.6904 81.6133 97.6904C80.7839 97.6904 80.221 98.0436 79.9248 98.75V104H78.6602V96.6035H79.8906L79.9111 97.458C80.3258 96.7972 80.9137 96.4668 81.6748 96.4668C81.9209 96.4668 82.1077 96.4987 82.2354 96.5625V97.7383ZM87.6973 104C87.6243 103.854 87.5651 103.594 87.5195 103.221C86.9316 103.831 86.2298 104.137 85.4141 104.137C84.6849 104.137 84.0856 103.932 83.6162 103.521C83.1514 103.107 82.9189 102.583 82.9189 101.949C82.9189 101.179 83.2106 100.582 83.7939 100.158C84.3818 99.7298 85.2067 99.5156 86.2686 99.5156H87.499V98.9346C87.499 98.4925 87.3669 98.1416 87.1025 97.8818C86.8382 97.6175 86.4486 97.4854 85.9336 97.4854C85.4824 97.4854 85.1042 97.5993 84.7988 97.8271C84.4935 98.055 84.3408 98.3307 84.3408 98.6543H83.0693C83.0693 98.2852 83.1992 97.9297 83.459 97.5879C83.7233 97.2415 84.0788 96.9681 84.5254 96.7676C84.9766 96.5671 85.471 96.4668 86.0088 96.4668C86.861 96.4668 87.5286 96.681 88.0117 97.1094C88.4948 97.5332 88.7454 98.1188 88.7637 98.8662V102.271C88.7637 102.95 88.8503 103.49 89.0234 103.891V104H87.6973ZM85.5986 103.036C85.9951 103.036 86.3711 102.934 86.7266 102.729C87.082 102.523 87.3395 102.257 87.499 101.929V100.411H86.5078C84.9583 100.411 84.1836 100.865 84.1836 101.771C84.1836 102.168 84.3158 102.478 84.5801 102.701C84.8444 102.924 85.1839 103.036 85.5986 103.036ZM90.4385 100.24C90.4385 99.1055 90.7074 98.194 91.2451 97.5059C91.7829 96.8132 92.487 96.4668 93.3574 96.4668C94.2233 96.4668 94.9092 96.763 95.415 97.3555V93.5H96.6797V104H95.5176L95.4561 103.207C94.9502 103.827 94.2461 104.137 93.3438 104.137C92.487 104.137 91.7874 103.786 91.2451 103.084C90.7074 102.382 90.4385 101.466 90.4385 100.336V100.24ZM91.7031 100.384C91.7031 101.222 91.8763 101.879 92.2227 102.353C92.569 102.826 93.0475 103.063 93.6582 103.063C94.4603 103.063 95.0459 102.703 95.415 101.983V98.5859C95.0368 97.8887 94.4557 97.54 93.6719 97.54C93.0521 97.54 92.569 97.7793 92.2227 98.2578C91.8763 98.7363 91.7031 99.445 91.7031 100.384ZM103.215 104C103.142 103.854 103.083 103.594 103.037 103.221C102.449 103.831 101.747 104.137 100.932 104.137C100.202 104.137 99.6032 103.932 99.1338 103.521C98.6689 103.107 98.4365 102.583 98.4365 101.949C98.4365 101.179 98.7282 100.582 99.3115 100.158C99.8994 99.7298 100.724 99.5156 101.786 99.5156H103.017V98.9346C103.017 98.4925 102.884 98.1416 102.62 97.8818C102.356 97.6175 101.966 97.4854 101.451 97.4854C101 97.4854 100.622 97.5993 100.316 97.8271C100.011 98.055 99.8584 98.3307 99.8584 98.6543H98.5869C98.5869 98.2852 98.7168 97.9297 98.9766 97.5879C99.2409 97.2415 99.5964 96.9681 100.043 96.7676C100.494 96.5671 100.989 96.4668 101.526 96.4668C102.379 96.4668 103.046 96.681 103.529 97.1094C104.012 97.5332 104.263 98.1188 104.281 98.8662V102.271C104.281 102.95 104.368 103.49 104.541 103.891V104H103.215ZM101.116 103.036C101.513 103.036 101.889 102.934 102.244 102.729C102.6 102.523 102.857 102.257 103.017 101.929V100.411H102.025C100.476 100.411 99.7012 100.865 99.7012 101.771C99.7012 102.168 99.8333 102.478 100.098 102.701C100.362 102.924 100.701 103.036 101.116 103.036ZM107.979 94.8125V96.6035H109.36V97.5811H107.979V102.168C107.979 102.464 108.041 102.688 108.164 102.838C108.287 102.984 108.497 103.057 108.793 103.057C108.939 103.057 109.139 103.029 109.395 102.975V104C109.062 104.091 108.738 104.137 108.424 104.137C107.859 104.137 107.433 103.966 107.146 103.624C106.858 103.282 106.715 102.797 106.715 102.168V97.5811H105.368V96.6035H106.715V94.8125H107.979ZM112.218 104H110.953V96.6035H112.218V104ZM110.851 94.6416C110.851 94.4365 110.912 94.2633 111.035 94.1221C111.163 93.9808 111.35 93.9102 111.596 93.9102C111.842 93.9102 112.029 93.9808 112.156 94.1221C112.284 94.2633 112.348 94.4365 112.348 94.6416C112.348 94.8467 112.284 95.0176 112.156 95.1543C112.029 95.291 111.842 95.3594 111.596 95.3594C111.35 95.3594 111.163 95.291 111.035 95.1543C110.912 95.0176 110.851 94.8467 110.851 94.6416ZM113.913 100.233C113.913 99.5088 114.054 98.8571 114.337 98.2783C114.624 97.6995 115.021 97.2529 115.526 96.9385C116.037 96.624 116.618 96.4668 117.27 96.4668C118.277 96.4668 119.09 96.8154 119.71 97.5127C120.334 98.21 120.646 99.1374 120.646 100.295V100.384C120.646 101.104 120.507 101.751 120.229 102.325C119.956 102.895 119.562 103.339 119.047 103.658C118.536 103.977 117.949 104.137 117.283 104.137C116.281 104.137 115.467 103.788 114.843 103.091C114.223 102.394 113.913 101.471 113.913 100.322V100.233ZM115.185 100.384C115.185 101.204 115.374 101.863 115.752 102.359C116.135 102.856 116.645 103.104 117.283 103.104C117.926 103.104 118.436 102.854 118.814 102.353C119.193 101.847 119.382 101.14 119.382 100.233C119.382 99.4222 119.188 98.766 118.801 98.2646C118.418 97.7588 117.908 97.5059 117.27 97.5059C116.645 97.5059 116.142 97.7542 115.759 98.251C115.376 98.7477 115.185 99.4587 115.185 100.384ZM123.429 96.6035L123.47 97.5332C124.035 96.8223 124.773 96.4668 125.685 96.4668C127.248 96.4668 128.036 97.3486 128.05 99.1123V104H126.785V99.1055C126.781 98.5723 126.658 98.1781 126.416 97.9229C126.179 97.6676 125.808 97.54 125.302 97.54C124.892 97.54 124.532 97.6494 124.222 97.8682C123.912 98.0869 123.67 98.374 123.497 98.7295V104H122.232V96.6035H123.429Z" fill="black"/>
<path d="M388.479 95.3838C388.479 96.5094 388.221 97.4163 387.706 98.1045C387.191 98.7926 386.494 99.1367 385.614 99.1367C384.716 99.1367 384.01 98.8519 383.495 98.2822V101.844H382.23V91.6035H383.386L383.447 92.4238C383.962 91.7858 384.678 91.4668 385.594 91.4668C386.482 91.4668 387.184 91.8018 387.699 92.4717C388.219 93.1416 388.479 94.0736 388.479 95.2676V95.3838ZM387.214 95.2402C387.214 94.4062 387.036 93.7477 386.681 93.2646C386.325 92.7816 385.838 92.54 385.218 92.54C384.452 92.54 383.878 92.8796 383.495 93.5586V97.0928C383.873 97.7673 384.452 98.1045 385.231 98.1045C385.838 98.1045 386.318 97.8652 386.674 97.3867C387.034 96.9036 387.214 96.1882 387.214 95.2402ZM393.667 92.7383C393.476 92.7064 393.268 92.6904 393.045 92.6904C392.215 92.6904 391.653 93.0436 391.356 93.75V99H390.092V91.6035H391.322L391.343 92.458C391.757 91.7972 392.345 91.4668 393.106 91.4668C393.353 91.4668 393.539 91.4987 393.667 91.5625V92.7383ZM394.364 95.2334C394.364 94.5088 394.506 93.8571 394.788 93.2783C395.075 92.6995 395.472 92.2529 395.978 91.9385C396.488 91.624 397.069 91.4668 397.721 91.4668C398.728 91.4668 399.541 91.8154 400.161 92.5127C400.785 93.21 401.098 94.1374 401.098 95.2949V95.3838C401.098 96.1038 400.959 96.751 400.681 97.3252C400.407 97.8949 400.013 98.3392 399.498 98.6582C398.988 98.9772 398.4 99.1367 397.734 99.1367C396.732 99.1367 395.918 98.7881 395.294 98.0908C394.674 97.3936 394.364 96.4707 394.364 95.3223V95.2334ZM395.636 95.3838C395.636 96.2041 395.825 96.8626 396.203 97.3594C396.586 97.8561 397.096 98.1045 397.734 98.1045C398.377 98.1045 398.887 97.8538 399.266 97.3525C399.644 96.8467 399.833 96.1403 399.833 95.2334C399.833 94.4222 399.639 93.766 399.252 93.2646C398.869 92.7588 398.359 92.5059 397.721 92.5059C397.096 92.5059 396.593 92.7542 396.21 93.251C395.827 93.7477 395.636 94.4587 395.636 95.3838ZM402.383 95.2402C402.383 94.0872 402.649 93.1712 403.183 92.4922C403.716 91.8086 404.422 91.4668 405.302 91.4668C406.204 91.4668 406.908 91.7858 407.414 92.4238L407.476 91.6035H408.631V98.8223C408.631 99.7793 408.346 100.534 407.776 101.085C407.211 101.636 406.45 101.912 405.493 101.912C404.96 101.912 404.438 101.798 403.928 101.57C403.417 101.342 403.028 101.03 402.759 100.634L403.415 99.875C403.957 100.545 404.62 100.88 405.404 100.88C406.02 100.88 406.498 100.707 406.84 100.36C407.186 100.014 407.359 99.5264 407.359 98.8975V98.2617C406.854 98.8451 406.163 99.1367 405.288 99.1367C404.422 99.1367 403.72 98.7881 403.183 98.0908C402.649 97.3936 402.383 96.4434 402.383 95.2402ZM403.654 95.3838C403.654 96.2178 403.825 96.874 404.167 97.3525C404.509 97.8265 404.987 98.0635 405.603 98.0635C406.4 98.0635 406.986 97.7012 407.359 96.9766V93.5996C406.972 92.8932 406.391 92.54 405.616 92.54C405.001 92.54 404.52 92.7793 404.174 93.2578C403.827 93.7363 403.654 94.445 403.654 95.3838ZM414.12 92.7383C413.929 92.7064 413.721 92.6904 413.498 92.6904C412.669 92.6904 412.106 93.0436 411.81 93.75V99H410.545V91.6035H411.775L411.796 92.458C412.211 91.7972 412.799 91.4668 413.56 91.4668C413.806 91.4668 413.993 91.4987 414.12 91.5625V92.7383ZM418.222 99.1367C417.219 99.1367 416.403 98.8086 415.774 98.1523C415.146 97.4915 414.831 96.6097 414.831 95.5068V95.2744C414.831 94.5407 414.97 93.8867 415.248 93.3125C415.531 92.7337 415.923 92.2826 416.424 91.959C416.93 91.6309 417.477 91.4668 418.064 91.4668C419.026 91.4668 419.773 91.7835 420.307 92.417C420.84 93.0505 421.106 93.9574 421.106 95.1377V95.6641H416.096C416.114 96.3932 416.326 96.9834 416.731 97.4346C417.142 97.8812 417.661 98.1045 418.29 98.1045C418.737 98.1045 419.115 98.0133 419.425 97.8311C419.735 97.6488 420.006 97.4072 420.238 97.1064L421.011 97.708C420.391 98.6605 419.461 99.1367 418.222 99.1367ZM418.064 92.5059C417.554 92.5059 417.126 92.6927 416.779 93.0664C416.433 93.4355 416.219 93.9551 416.137 94.625H419.842V94.5293C419.805 93.8867 419.632 93.39 419.322 93.0391C419.012 92.6836 418.593 92.5059 418.064 92.5059ZM426.883 97.0381C426.883 96.6963 426.753 96.432 426.493 96.2451C426.238 96.0537 425.789 95.8896 425.146 95.7529C424.508 95.6162 424 95.4521 423.622 95.2607C423.248 95.0693 422.97 94.8415 422.788 94.5771C422.61 94.3128 422.521 93.9984 422.521 93.6338C422.521 93.0277 422.777 92.515 423.287 92.0957C423.802 91.6764 424.458 91.4668 425.256 91.4668C426.094 91.4668 426.773 91.6833 427.293 92.1162C427.817 92.5492 428.079 93.1029 428.079 93.7773H426.808C426.808 93.431 426.66 93.1325 426.363 92.8818C426.072 92.6312 425.702 92.5059 425.256 92.5059C424.796 92.5059 424.436 92.6061 424.176 92.8066C423.916 93.0072 423.786 93.2692 423.786 93.5928C423.786 93.8981 423.907 94.1283 424.148 94.2832C424.39 94.4382 424.825 94.5863 425.454 94.7275C426.088 94.8688 426.6 95.0374 426.992 95.2334C427.384 95.4294 427.674 95.6663 427.86 95.9443C428.052 96.2178 428.147 96.5527 428.147 96.9492C428.147 97.61 427.883 98.141 427.354 98.542C426.826 98.9385 426.14 99.1367 425.297 99.1367C424.704 99.1367 424.18 99.0319 423.725 98.8223C423.269 98.6126 422.911 98.321 422.651 97.9473C422.396 97.569 422.269 97.1611 422.269 96.7236H423.533C423.556 97.1475 423.725 97.4847 424.039 97.7354C424.358 97.9814 424.777 98.1045 425.297 98.1045C425.775 98.1045 426.158 98.0088 426.445 97.8174C426.737 97.6214 426.883 97.3617 426.883 97.0381ZM434.102 97.0381C434.102 96.6963 433.972 96.432 433.712 96.2451C433.457 96.0537 433.008 95.8896 432.365 95.7529C431.727 95.6162 431.219 95.4521 430.841 95.2607C430.467 95.0693 430.189 94.8415 430.007 94.5771C429.829 94.3128 429.74 93.9984 429.74 93.6338C429.74 93.0277 429.995 92.515 430.506 92.0957C431.021 91.6764 431.677 91.4668 432.475 91.4668C433.313 91.4668 433.992 91.6833 434.512 92.1162C435.036 92.5492 435.298 93.1029 435.298 93.7773H434.026C434.026 93.431 433.878 93.1325 433.582 92.8818C433.29 92.6312 432.921 92.5059 432.475 92.5059C432.014 92.5059 431.654 92.6061 431.395 92.8066C431.135 93.0072 431.005 93.2692 431.005 93.5928C431.005 93.8981 431.126 94.1283 431.367 94.2832C431.609 94.4382 432.044 94.5863 432.673 94.7275C433.306 94.8688 433.819 95.0374 434.211 95.2334C434.603 95.4294 434.892 95.6663 435.079 95.9443C435.271 96.2178 435.366 96.5527 435.366 96.9492C435.366 97.61 435.102 98.141 434.573 98.542C434.045 98.9385 433.359 99.1367 432.516 99.1367C431.923 99.1367 431.399 99.0319 430.943 98.8223C430.488 98.6126 430.13 98.321 429.87 97.9473C429.615 97.569 429.487 97.1611 429.487 96.7236H430.752C430.775 97.1475 430.943 97.4847 431.258 97.7354C431.577 97.9814 431.996 98.1045 432.516 98.1045C432.994 98.1045 433.377 98.0088 433.664 97.8174C433.956 97.6214 434.102 97.3617 434.102 97.0381ZM438.388 99H437.123V91.6035H438.388V99ZM437.021 89.6416C437.021 89.4365 437.082 89.2633 437.205 89.1221C437.333 88.9808 437.52 88.9102 437.766 88.9102C438.012 88.9102 438.199 88.9808 438.326 89.1221C438.454 89.2633 438.518 89.4365 438.518 89.6416C438.518 89.8467 438.454 90.0176 438.326 90.1543C438.199 90.291 438.012 90.3594 437.766 90.3594C437.52 90.3594 437.333 90.291 437.205 90.1543C437.082 90.0176 437.021 89.8467 437.021 89.6416ZM442.858 97.2842L444.69 91.6035H445.982L443.33 99H442.366L439.687 91.6035H440.979L442.858 97.2842ZM450.173 99.1367C449.17 99.1367 448.354 98.8086 447.726 98.1523C447.097 97.4915 446.782 96.6097 446.782 95.5068V95.2744C446.782 94.5407 446.921 93.8867 447.199 93.3125C447.482 92.7337 447.874 92.2826 448.375 91.959C448.881 91.6309 449.428 91.4668 450.016 91.4668C450.977 91.4668 451.725 91.7835 452.258 92.417C452.791 93.0505 453.058 93.9574 453.058 95.1377V95.6641H448.047C448.065 96.3932 448.277 96.9834 448.683 97.4346C449.093 97.8812 449.612 98.1045 450.241 98.1045C450.688 98.1045 451.066 98.0133 451.376 97.8311C451.686 97.6488 451.957 97.4072 452.189 97.1064L452.962 97.708C452.342 98.6605 451.412 99.1367 450.173 99.1367ZM450.016 92.5059C449.505 92.5059 449.077 92.6927 448.73 93.0664C448.384 93.4355 448.17 93.9551 448.088 94.625H451.793V94.5293C451.757 93.8867 451.583 93.39 451.273 93.0391C450.964 92.6836 450.544 92.5059 450.016 92.5059ZM461.069 99.1367C460.067 99.1367 459.251 98.8086 458.622 98.1523C457.993 97.4915 457.679 96.6097 457.679 95.5068V95.2744C457.679 94.5407 457.818 93.8867 458.096 93.3125C458.378 92.7337 458.77 92.2826 459.271 91.959C459.777 91.6309 460.324 91.4668 460.912 91.4668C461.874 91.4668 462.621 91.7835 463.154 92.417C463.688 93.0505 463.954 93.9574 463.954 95.1377V95.6641H458.943C458.962 96.3932 459.174 96.9834 459.579 97.4346C459.989 97.8812 460.509 98.1045 461.138 98.1045C461.584 98.1045 461.963 98.0133 462.272 97.8311C462.582 97.6488 462.854 97.4072 463.086 97.1064L463.858 97.708C463.239 98.6605 462.309 99.1367 461.069 99.1367ZM460.912 92.5059C460.402 92.5059 459.973 92.6927 459.627 93.0664C459.281 93.4355 459.066 93.9551 458.984 94.625H462.689V94.5293C462.653 93.8867 462.48 93.39 462.17 93.0391C461.86 92.6836 461.441 92.5059 460.912 92.5059ZM466.62 91.6035L466.661 92.5332C467.226 91.8223 467.965 91.4668 468.876 91.4668C470.439 91.4668 471.228 92.3486 471.241 94.1123V99H469.977V94.1055C469.972 93.5723 469.849 93.1781 469.607 92.9229C469.37 92.6676 468.999 92.54 468.493 92.54C468.083 92.54 467.723 92.6494 467.413 92.8682C467.103 93.0869 466.862 93.374 466.688 93.7295V99H465.424V91.6035H466.62ZM474.413 92.499C474.974 91.8109 475.703 91.4668 476.601 91.4668C478.164 91.4668 478.952 92.3486 478.966 94.1123V99H477.701V94.1055C477.697 93.5723 477.574 93.1781 477.332 92.9229C477.095 92.6676 476.724 92.54 476.218 92.54C475.808 92.54 475.448 92.6494 475.138 92.8682C474.828 93.0869 474.586 93.374 474.413 93.7295V99H473.148V88.5H474.413V92.499ZM485.426 99C485.353 98.8542 485.294 98.5944 485.248 98.2207C484.66 98.8314 483.958 99.1367 483.143 99.1367C482.413 99.1367 481.814 98.9316 481.345 98.5215C480.88 98.1068 480.647 97.5827 480.647 96.9492C480.647 96.179 480.939 95.582 481.522 95.1582C482.11 94.7298 482.935 94.5156 483.997 94.5156H485.228V93.9346C485.228 93.4925 485.095 93.1416 484.831 92.8818C484.567 92.6175 484.177 92.4854 483.662 92.4854C483.211 92.4854 482.833 92.5993 482.527 92.8271C482.222 93.055 482.069 93.3307 482.069 93.6543H480.798C480.798 93.2852 480.928 92.9297 481.188 92.5879C481.452 92.2415 481.807 91.9681 482.254 91.7676C482.705 91.5671 483.2 91.4668 483.737 91.4668C484.59 91.4668 485.257 91.681 485.74 92.1094C486.223 92.5332 486.474 93.1188 486.492 93.8662V97.2705C486.492 97.9495 486.579 98.4896 486.752 98.8906V99H485.426ZM483.327 98.0361C483.724 98.0361 484.1 97.9336 484.455 97.7285C484.811 97.5234 485.068 97.2568 485.228 96.9287V95.4111H484.236C482.687 95.4111 481.912 95.8646 481.912 96.7715C481.912 97.168 482.044 97.4779 482.309 97.7012C482.573 97.9245 482.912 98.0361 483.327 98.0361ZM489.671 91.6035L489.712 92.5332C490.277 91.8223 491.015 91.4668 491.927 91.4668C493.49 91.4668 494.278 92.3486 494.292 94.1123V99H493.027V94.1055C493.023 93.5723 492.9 93.1781 492.658 92.9229C492.421 92.6676 492.05 92.54 491.544 92.54C491.134 92.54 490.774 92.6494 490.464 92.8682C490.154 93.0869 489.912 93.374 489.739 93.7295V99H488.475V91.6035H489.671ZM499.166 98.1045C499.617 98.1045 500.011 97.9678 500.349 97.6943C500.686 97.4209 500.873 97.0791 500.909 96.6689H502.105C502.083 97.0928 501.937 97.4961 501.668 97.8789C501.399 98.2617 501.039 98.5671 500.588 98.7949C500.141 99.0228 499.667 99.1367 499.166 99.1367C498.159 99.1367 497.357 98.8018 496.76 98.1318C496.167 97.4574 495.871 96.5368 495.871 95.3701V95.1582C495.871 94.4382 496.003 93.7979 496.268 93.2373C496.532 92.6768 496.91 92.2415 497.402 91.9316C497.899 91.6217 498.485 91.4668 499.159 91.4668C499.989 91.4668 500.677 91.7152 501.224 92.2119C501.775 92.7087 502.069 93.3535 502.105 94.1465H500.909C500.873 93.668 500.69 93.276 500.362 92.9707C500.039 92.6608 499.638 92.5059 499.159 92.5059C498.517 92.5059 498.018 92.7383 497.662 93.2031C497.311 93.6634 497.136 94.3311 497.136 95.2061V95.4453C497.136 96.2975 497.311 96.9538 497.662 97.4141C498.013 97.8743 498.514 98.1045 499.166 98.1045ZM506.597 99.1367C505.594 99.1367 504.778 98.8086 504.149 98.1523C503.521 97.4915 503.206 96.6097 503.206 95.5068V95.2744C503.206 94.5407 503.345 93.8867 503.623 93.3125C503.906 92.7337 504.298 92.2826 504.799 91.959C505.305 91.6309 505.852 91.4668 506.439 91.4668C507.401 91.4668 508.148 91.7835 508.682 92.417C509.215 93.0505 509.481 93.9574 509.481 95.1377V95.6641H504.471C504.489 96.3932 504.701 96.9834 505.106 97.4346C505.517 97.8812 506.036 98.1045 506.665 98.1045C507.112 98.1045 507.49 98.0133 507.8 97.8311C508.11 97.6488 508.381 97.4072 508.613 97.1064L509.386 97.708C508.766 98.6605 507.836 99.1367 506.597 99.1367ZM506.439 92.5059C505.929 92.5059 505.501 92.6927 505.154 93.0664C504.808 93.4355 504.594 93.9551 504.512 94.625H508.217V94.5293C508.18 93.8867 508.007 93.39 507.697 93.0391C507.387 92.6836 506.968 92.5059 506.439 92.5059ZM512.141 91.6035L512.175 92.4238C512.717 91.7858 513.449 91.4668 514.369 91.4668C515.404 91.4668 516.108 91.8633 516.481 92.6562C516.728 92.3008 517.047 92.0137 517.438 91.7949C517.835 91.5762 518.302 91.4668 518.84 91.4668C520.462 91.4668 521.287 92.3258 521.314 94.0439V99H520.05V94.1191C520.05 93.5905 519.929 93.1963 519.688 92.9365C519.446 92.6722 519.04 92.54 518.471 92.54C518.001 92.54 517.612 92.6813 517.302 92.9639C516.992 93.2419 516.812 93.6178 516.762 94.0918V99H515.49V94.1533C515.49 93.0778 514.964 92.54 513.911 92.54C513.082 92.54 512.514 92.8932 512.209 93.5996V99H510.944V91.6035H512.141ZM526.298 99.1367C525.295 99.1367 524.479 98.8086 523.851 98.1523C523.222 97.4915 522.907 96.6097 522.907 95.5068V95.2744C522.907 94.5407 523.046 93.8867 523.324 93.3125C523.607 92.7337 523.999 92.2826 524.5 91.959C525.006 91.6309 525.553 91.4668 526.141 91.4668C527.102 91.4668 527.85 91.7835 528.383 92.417C528.916 93.0505 529.183 93.9574 529.183 95.1377V95.6641H524.172C524.19 96.3932 524.402 96.9834 524.808 97.4346C525.218 97.8812 525.737 98.1045 526.366 98.1045C526.813 98.1045 527.191 98.0133 527.501 97.8311C527.811 97.6488 528.082 97.4072 528.314 97.1064L529.087 97.708C528.467 98.6605 527.537 99.1367 526.298 99.1367ZM526.141 92.5059C525.63 92.5059 525.202 92.6927 524.855 93.0664C524.509 93.4355 524.295 93.9551 524.213 94.625H527.918V94.5293C527.882 93.8867 527.708 93.39 527.398 93.0391C527.089 92.6836 526.669 92.5059 526.141 92.5059ZM531.849 91.6035L531.89 92.5332C532.455 91.8223 533.193 91.4668 534.104 91.4668C535.668 91.4668 536.456 92.3486 536.47 94.1123V99H535.205V94.1055C535.201 93.5723 535.077 93.1781 534.836 92.9229C534.599 92.6676 534.228 92.54 533.722 92.54C533.312 92.54 532.951 92.6494 532.642 92.8682C532.332 93.0869 532.09 93.374 531.917 93.7295V99H530.652V91.6035H531.849ZM540.093 89.8125V91.6035H541.474V92.5811H540.093V97.168C540.093 97.4642 540.154 97.6875 540.277 97.8379C540.4 97.9837 540.61 98.0566 540.906 98.0566C541.052 98.0566 541.253 98.0293 541.508 97.9746V99C541.175 99.0911 540.852 99.1367 540.537 99.1367C539.972 99.1367 539.546 98.9658 539.259 98.624C538.972 98.2822 538.828 97.7969 538.828 97.168V92.5811H537.481V91.6035H538.828V89.8125H540.093Z" fill="black"/>
<path d="M774.207 62.7071C774.598 62.3166 774.598 61.6834 774.207 61.2929L767.843 54.9289C767.453 54.5384 766.819 54.5384 766.429 54.9289C766.038 55.3195 766.038 55.9526 766.429 56.3431L772.086 62L766.429 67.6569C766.038 68.0474 766.038 68.6805 766.429 69.0711C766.819 69.4616 767.453 69.4616 767.843 69.0711L774.207 62.7071ZM151 63H773.5V61H151V63Z" fill="#18A0FB"/>
<path d="M9.29289 60.2929C8.90236 60.6834 8.90236 61.3166 9.29289 61.7071L15.6568 68.0711C16.0474 68.4616 16.6805 68.4616 17.0711 68.0711C17.4616 67.6805 17.4616 67.0474 17.0711 66.6568L11.4142 61L17.0711 55.3431C17.4616 54.9526 17.4616 54.3194 17.0711 53.9289C16.6805 53.5384 16.0474 53.5384 15.6568 53.9289L9.29289 60.2929ZM118 60L9.99999 60L9.99999 62L118 62L118 60Z" fill="#FB5432"/>
<circle cx="14" cy="32" r="5" fill="#C4C4C4"/>
<circle cx="136" cy="32" r="5" fill="#C4C4C4"/>
<circle cx="268" cy="32" r="5" fill="#C4C4C4"/>
<circle cx="421" cy="32" r="5" fill="#C4C4C4"/>
<circle cx="600" cy="32" r="5" fill="#C4C4C4"/>
<circle cx="769" cy="32" r="5" fill="#C4C4C4"/>
</svg>
