<svg width="879" height="107" viewBox="0 0 879 107" fill="none" xmlns="http://www.w3.org/2000/svg">
<g clip-path="url(#clip0)">
<rect width="879" height="107" fill="white"/>
<path d="M42.5635 13H41.251V3.04688H42.5635V13ZM50.5957 8.39941H46.2822V11.9268H51.293V13H44.9697V3.04688H51.2246V4.12695H46.2822V7.32617H50.5957V8.39941ZM56.7549 13H55.4834V4.57129L52.9336 5.50781V4.35938L56.5566 2.99902H56.7549V13ZM64.6162 13H63.3447V4.57129L60.7949 5.50781V4.35938L64.418 2.99902H64.6162V13Z" fill="black"/>
<path d="M160.734 8.60449H156.558V13H155.245V3.04688H161.411V4.12695H156.558V7.53125H160.734V8.60449ZM164.159 13H162.895V5.60352H164.159V13ZM162.792 3.6416C162.792 3.43652 162.854 3.26335 162.977 3.12207C163.104 2.98079 163.291 2.91016 163.537 2.91016C163.783 2.91016 163.97 2.98079 164.098 3.12207C164.225 3.26335 164.289 3.43652 164.289 3.6416C164.289 3.84668 164.225 4.01758 164.098 4.1543C163.97 4.29102 163.783 4.35938 163.537 4.35938C163.291 4.35938 163.104 4.29102 162.977 4.1543C162.854 4.01758 162.792 3.84668 162.792 3.6416ZM169.765 6.73828C169.573 6.70638 169.366 6.69043 169.143 6.69043C168.313 6.69043 167.75 7.04362 167.454 7.75V13H166.189V5.60352H167.42L167.44 6.45801C167.855 5.7972 168.443 5.4668 169.204 5.4668C169.45 5.4668 169.637 5.4987 169.765 5.5625V6.73828ZM173.866 13.1367C172.864 13.1367 172.048 12.8086 171.419 12.1523C170.79 11.4915 170.476 10.6097 170.476 9.50684V9.27441C170.476 8.54069 170.615 7.88672 170.893 7.3125C171.175 6.73372 171.567 6.28255 172.068 5.95898C172.574 5.63086 173.121 5.4668 173.709 5.4668C174.671 5.4668 175.418 5.78353 175.951 6.41699C176.484 7.05046 176.751 7.95736 176.751 9.1377V9.66406H171.74C171.758 10.3932 171.97 10.9834 172.376 11.4346C172.786 11.8812 173.306 12.1045 173.935 12.1045C174.381 12.1045 174.759 12.0133 175.069 11.8311C175.379 11.6488 175.65 11.4072 175.883 11.1064L176.655 11.708C176.035 12.6605 175.106 13.1367 173.866 13.1367ZM173.709 6.50586C173.199 6.50586 172.77 6.69271 172.424 7.06641C172.077 7.43555 171.863 7.95508 171.781 8.625H175.486V8.5293C175.45 7.88672 175.277 7.38997 174.967 7.03906C174.657 6.68359 174.238 6.50586 173.709 6.50586ZM178.843 13V6.58105H177.674V5.60352H178.843V4.84473C178.843 4.05176 179.055 3.4388 179.479 3.00586C179.902 2.57292 180.502 2.35645 181.276 2.35645C181.568 2.35645 181.857 2.39518 182.145 2.47266L182.076 3.49805C181.862 3.45703 181.634 3.43652 181.393 3.43652C180.982 3.43652 180.666 3.55729 180.442 3.79883C180.219 4.03581 180.107 4.3776 180.107 4.82422V5.60352H181.687V6.58105H180.107V13H178.843ZM182.753 9.2334C182.753 8.50879 182.894 7.8571 183.177 7.27832C183.464 6.69954 183.86 6.25293 184.366 5.93848C184.877 5.62402 185.458 5.4668 186.109 5.4668C187.117 5.4668 187.93 5.81543 188.55 6.5127C189.174 7.20996 189.486 8.13737 189.486 9.29492V9.38379C189.486 10.1038 189.347 10.751 189.069 11.3252C188.796 11.8949 188.402 12.3392 187.887 12.6582C187.376 12.9772 186.788 13.1367 186.123 13.1367C185.12 13.1367 184.307 12.7881 183.683 12.0908C183.063 11.3936 182.753 10.4707 182.753 9.32227V9.2334ZM184.024 9.38379C184.024 10.2041 184.214 10.8626 184.592 11.3594C184.975 11.8561 185.485 12.1045 186.123 12.1045C186.766 12.1045 187.276 11.8538 187.654 11.3525C188.033 10.8467 188.222 10.1403 188.222 9.2334C188.222 8.4222 188.028 7.76595 187.641 7.26465C187.258 6.75879 186.747 6.50586 186.109 6.50586C185.485 6.50586 184.981 6.75423 184.599 7.25098C184.216 7.74772 184.024 8.45866 184.024 9.38379ZM193.403 8.30371L195.044 5.60352H196.521L194.101 9.26074L196.596 13H195.133L193.424 10.2314L191.715 13H190.245L192.74 9.26074L190.32 5.60352H191.783L193.403 8.30371Z" fill="black"/>
<path d="M291.915 9.8418C291.792 10.8945 291.402 11.708 290.746 12.2822C290.094 12.8519 289.226 13.1367 288.142 13.1367C286.966 13.1367 286.022 12.7152 285.312 11.8721C284.605 11.029 284.252 9.90104 284.252 8.48828V7.53125C284.252 6.60612 284.416 5.79264 284.744 5.09082C285.077 4.389 285.546 3.85124 286.152 3.47754C286.758 3.09928 287.46 2.91016 288.258 2.91016C289.315 2.91016 290.163 3.20638 290.801 3.79883C291.439 4.38672 291.81 5.20247 291.915 6.24609H290.596C290.482 5.45312 290.233 4.87891 289.851 4.52344C289.472 4.16797 288.941 3.99023 288.258 3.99023C287.419 3.99023 286.761 4.30013 286.282 4.91992C285.808 5.53971 285.571 6.42155 285.571 7.56543V8.5293C285.571 9.60938 285.797 10.4684 286.248 11.1064C286.699 11.7445 287.33 12.0635 288.142 12.0635C288.871 12.0635 289.429 11.8994 289.816 11.5713C290.208 11.2386 290.468 10.6621 290.596 9.8418H291.915ZM294.779 6.49902C295.34 5.81087 296.069 5.4668 296.967 5.4668C298.53 5.4668 299.318 6.34863 299.332 8.1123V13H298.067V8.10547C298.063 7.57227 297.94 7.17806 297.698 6.92285C297.461 6.66764 297.09 6.54004 296.584 6.54004C296.174 6.54004 295.814 6.64941 295.504 6.86816C295.194 7.08691 294.952 7.37402 294.779 7.72949V13H293.515V2.5H294.779V6.49902ZM304.801 6.73828C304.609 6.70638 304.402 6.69043 304.179 6.69043C303.349 6.69043 302.786 7.04362 302.49 7.75V13H301.226V5.60352H302.456L302.477 6.45801C302.891 5.7972 303.479 5.4668 304.24 5.4668C304.486 5.4668 304.673 5.4987 304.801 5.5625V6.73828ZM305.498 9.2334C305.498 8.50879 305.639 7.8571 305.922 7.27832C306.209 6.69954 306.605 6.25293 307.111 5.93848C307.622 5.62402 308.203 5.4668 308.854 5.4668C309.862 5.4668 310.675 5.81543 311.295 6.5127C311.919 7.20996 312.231 8.13737 312.231 9.29492V9.38379C312.231 10.1038 312.092 10.751 311.814 11.3252C311.541 11.8949 311.147 12.3392 310.632 12.6582C310.121 12.9772 309.534 13.1367 308.868 13.1367C307.866 13.1367 307.052 12.7881 306.428 12.0908C305.808 11.3936 305.498 10.4707 305.498 9.32227V9.2334ZM306.77 9.38379C306.77 10.2041 306.959 10.8626 307.337 11.3594C307.72 11.8561 308.23 12.1045 308.868 12.1045C309.511 12.1045 310.021 11.8538 310.399 11.3525C310.778 10.8467 310.967 10.1403 310.967 9.2334C310.967 8.4222 310.773 7.76595 310.386 7.26465C310.003 6.75879 309.493 6.50586 308.854 6.50586C308.23 6.50586 307.727 6.75423 307.344 7.25098C306.961 7.74772 306.77 8.45866 306.77 9.38379ZM315.007 5.60352L315.041 6.42383C315.583 5.78581 316.315 5.4668 317.235 5.4668C318.27 5.4668 318.974 5.86328 319.348 6.65625C319.594 6.30078 319.913 6.01367 320.305 5.79492C320.701 5.57617 321.168 5.4668 321.706 5.4668C323.328 5.4668 324.153 6.32585 324.181 8.04395V13H322.916V8.11914C322.916 7.59049 322.795 7.19629 322.554 6.93652C322.312 6.6722 321.907 6.54004 321.337 6.54004C320.868 6.54004 320.478 6.68132 320.168 6.96387C319.858 7.24186 319.678 7.61784 319.628 8.0918V13H318.356V8.15332C318.356 7.0778 317.83 6.54004 316.777 6.54004C315.948 6.54004 315.381 6.89323 315.075 7.59961V13H313.811V5.60352H315.007ZM329.164 13.1367C328.161 13.1367 327.346 12.8086 326.717 12.1523C326.088 11.4915 325.773 10.6097 325.773 9.50684V9.27441C325.773 8.54069 325.912 7.88672 326.19 7.3125C326.473 6.73372 326.865 6.28255 327.366 5.95898C327.872 5.63086 328.419 5.4668 329.007 5.4668C329.968 5.4668 330.716 5.78353 331.249 6.41699C331.782 7.05046 332.049 7.95736 332.049 9.1377V9.66406H327.038C327.056 10.3932 327.268 10.9834 327.674 11.4346C328.084 11.8812 328.604 12.1045 329.232 12.1045C329.679 12.1045 330.057 12.0133 330.367 11.8311C330.677 11.6488 330.948 11.4072 331.181 11.1064L331.953 11.708C331.333 12.6605 330.404 13.1367 329.164 13.1367ZM329.007 6.50586C328.496 6.50586 328.068 6.69271 327.722 7.06641C327.375 7.43555 327.161 7.95508 327.079 8.625H330.784V8.5293C330.748 7.88672 330.575 7.38997 330.265 7.03906C329.955 6.68359 329.535 6.50586 329.007 6.50586Z" fill="black"/>
<path d="M423.422 8.56348C422.296 8.23991 421.476 7.84342 420.961 7.37402C420.451 6.90007 420.195 6.31673 420.195 5.62402C420.195 4.84017 420.507 4.19303 421.132 3.68262C421.761 3.16764 422.576 2.91016 423.579 2.91016C424.263 2.91016 424.871 3.04232 425.404 3.30664C425.942 3.57096 426.357 3.93555 426.648 4.40039C426.945 4.86523 427.093 5.37337 427.093 5.9248H425.773C425.773 5.32324 425.582 4.85156 425.199 4.50977C424.816 4.16341 424.276 3.99023 423.579 3.99023C422.932 3.99023 422.426 4.13379 422.062 4.4209C421.701 4.70345 421.521 5.09766 421.521 5.60352C421.521 6.00911 421.692 6.35319 422.034 6.63574C422.381 6.91374 422.966 7.16895 423.791 7.40137C424.62 7.63379 425.268 7.89128 425.732 8.17383C426.202 8.45182 426.548 8.77767 426.771 9.15137C426.999 9.52507 427.113 9.96484 427.113 10.4707C427.113 11.2773 426.799 11.9245 426.17 12.4121C425.541 12.8952 424.7 13.1367 423.647 13.1367C422.964 13.1367 422.326 13.0068 421.733 12.7471C421.141 12.4827 420.683 12.1227 420.359 11.667C420.04 11.2113 419.881 10.694 419.881 10.1152H421.2C421.2 10.7168 421.421 11.193 421.863 11.5439C422.31 11.8903 422.905 12.0635 423.647 12.0635C424.34 12.0635 424.871 11.9222 425.24 11.6396C425.609 11.3571 425.794 10.972 425.794 10.4844C425.794 9.99674 425.623 9.62077 425.281 9.35645C424.939 9.08757 424.32 8.82324 423.422 8.56348ZM433.17 13C433.097 12.8542 433.038 12.5944 432.992 12.2207C432.404 12.8314 431.702 13.1367 430.887 13.1367C430.158 13.1367 429.558 12.9316 429.089 12.5215C428.624 12.1068 428.392 11.5827 428.392 10.9492C428.392 10.179 428.683 9.58203 429.267 9.1582C429.854 8.72982 430.679 8.51562 431.741 8.51562H432.972V7.93457C432.972 7.49251 432.84 7.1416 432.575 6.88184C432.311 6.61751 431.921 6.48535 431.406 6.48535C430.955 6.48535 430.577 6.59928 430.271 6.82715C429.966 7.05501 429.813 7.33073 429.813 7.6543H428.542C428.542 7.28516 428.672 6.92969 428.932 6.58789C429.196 6.24154 429.551 5.9681 429.998 5.76758C430.449 5.56706 430.944 5.4668 431.481 5.4668C432.334 5.4668 433.001 5.68099 433.484 6.10938C433.967 6.5332 434.218 7.11882 434.236 7.86621V11.2705C434.236 11.9495 434.323 12.4896 434.496 12.8906V13H433.17ZM431.071 12.0361C431.468 12.0361 431.844 11.9336 432.199 11.7285C432.555 11.5234 432.812 11.2568 432.972 10.9287V9.41113H431.98C430.431 9.41113 429.656 9.86458 429.656 10.7715C429.656 11.168 429.788 11.4779 430.053 11.7012C430.317 11.9245 430.657 12.0361 431.071 12.0361ZM436.841 13V6.58105H435.672V5.60352H436.841V4.84473C436.841 4.05176 437.053 3.4388 437.477 3.00586C437.9 2.57292 438.5 2.35645 439.274 2.35645C439.566 2.35645 439.855 2.39518 440.143 2.47266L440.074 3.49805C439.86 3.45703 439.632 3.43652 439.391 3.43652C438.98 3.43652 438.664 3.55729 438.44 3.79883C438.217 4.03581 438.105 4.3776 438.105 4.82422V5.60352H439.685V6.58105H438.105V13H436.841ZM445.652 13C445.579 12.8542 445.52 12.5944 445.475 12.2207C444.887 12.8314 444.185 13.1367 443.369 13.1367C442.64 13.1367 442.041 12.9316 441.571 12.5215C441.106 12.1068 440.874 11.5827 440.874 10.9492C440.874 10.179 441.166 9.58203 441.749 9.1582C442.337 8.72982 443.162 8.51562 444.224 8.51562H445.454V7.93457C445.454 7.49251 445.322 7.1416 445.058 6.88184C444.793 6.61751 444.404 6.48535 443.889 6.48535C443.438 6.48535 443.059 6.59928 442.754 6.82715C442.449 7.05501 442.296 7.33073 442.296 7.6543H441.024C441.024 7.28516 441.154 6.92969 441.414 6.58789C441.678 6.24154 442.034 5.9681 442.48 5.76758C442.932 5.56706 443.426 5.4668 443.964 5.4668C444.816 5.4668 445.484 5.68099 445.967 6.10938C446.45 6.5332 446.701 7.11882 446.719 7.86621V11.2705C446.719 11.9495 446.805 12.4896 446.979 12.8906V13H445.652ZM443.554 12.0361C443.95 12.0361 444.326 11.9336 444.682 11.7285C445.037 11.5234 445.295 11.2568 445.454 10.9287V9.41113H444.463C442.913 9.41113 442.139 9.86458 442.139 10.7715C442.139 11.168 442.271 11.4779 442.535 11.7012C442.799 11.9245 443.139 12.0361 443.554 12.0361ZM452.276 6.73828C452.085 6.70638 451.878 6.69043 451.654 6.69043C450.825 6.69043 450.262 7.04362 449.966 7.75V13H448.701V5.60352H449.932L449.952 6.45801C450.367 5.7972 450.955 5.4668 451.716 5.4668C451.962 5.4668 452.149 5.4987 452.276 5.5625V6.73828ZM454.819 13H453.555V5.60352H454.819V13ZM453.452 3.6416C453.452 3.43652 453.514 3.26335 453.637 3.12207C453.764 2.98079 453.951 2.91016 454.197 2.91016C454.443 2.91016 454.63 2.98079 454.758 3.12207C454.885 3.26335 454.949 3.43652 454.949 3.6416C454.949 3.84668 454.885 4.01758 454.758 4.1543C454.63 4.29102 454.443 4.35938 454.197 4.35938C453.951 4.35938 453.764 4.29102 453.637 4.1543C453.514 4.01758 453.452 3.84668 453.452 3.6416ZM462.216 3.04688L465.47 11.168L468.724 3.04688H470.426V13H469.113V9.12402L469.236 4.94043L465.969 13H464.964L461.703 4.96094L461.833 9.12402V13H460.521V3.04688H462.216ZM472.21 9.2334C472.21 8.50879 472.351 7.8571 472.634 7.27832C472.921 6.69954 473.317 6.25293 473.823 5.93848C474.334 5.62402 474.915 5.4668 475.566 5.4668C476.574 5.4668 477.387 5.81543 478.007 6.5127C478.631 7.20996 478.943 8.13737 478.943 9.29492V9.38379C478.943 10.1038 478.804 10.751 478.526 11.3252C478.253 11.8949 477.859 12.3392 477.344 12.6582C476.833 12.9772 476.245 13.1367 475.58 13.1367C474.577 13.1367 473.764 12.7881 473.14 12.0908C472.52 11.3936 472.21 10.4707 472.21 9.32227V9.2334ZM473.481 9.38379C473.481 10.2041 473.671 10.8626 474.049 11.3594C474.432 11.8561 474.942 12.1045 475.58 12.1045C476.223 12.1045 476.733 11.8538 477.111 11.3525C477.49 10.8467 477.679 10.1403 477.679 9.2334C477.679 8.4222 477.485 7.76595 477.098 7.26465C476.715 6.75879 476.204 6.50586 475.566 6.50586C474.942 6.50586 474.438 6.75423 474.056 7.25098C473.673 7.74772 473.481 8.45866 473.481 9.38379ZM486.791 9.38379C486.791 10.514 486.531 11.4232 486.012 12.1113C485.492 12.7949 484.795 13.1367 483.92 13.1367C482.986 13.1367 482.263 12.8063 481.753 12.1455L481.691 13H480.529V2.5H481.794V6.41699C482.304 5.78353 483.008 5.4668 483.906 5.4668C484.804 5.4668 485.508 5.80632 486.019 6.48535C486.534 7.16439 486.791 8.09408 486.791 9.27441V9.38379ZM485.526 9.24023C485.526 8.37891 485.36 7.71354 485.027 7.24414C484.695 6.77474 484.216 6.54004 483.592 6.54004C482.758 6.54004 482.159 6.92741 481.794 7.70215V10.9014C482.181 11.6761 482.785 12.0635 483.605 12.0635C484.212 12.0635 484.683 11.8288 485.021 11.3594C485.358 10.89 485.526 10.1836 485.526 9.24023ZM489.765 13H488.5V5.60352H489.765V13ZM488.397 3.6416C488.397 3.43652 488.459 3.26335 488.582 3.12207C488.71 2.98079 488.896 2.91016 489.143 2.91016C489.389 2.91016 489.576 2.98079 489.703 3.12207C489.831 3.26335 489.895 3.43652 489.895 3.6416C489.895 3.84668 489.831 4.01758 489.703 4.1543C489.576 4.29102 489.389 4.35938 489.143 4.35938C488.896 4.35938 488.71 4.29102 488.582 4.1543C488.459 4.01758 488.397 3.84668 488.397 3.6416ZM493.169 13H491.904V2.5H493.169V13ZM498.269 13.1367C497.266 13.1367 496.45 12.8086 495.821 12.1523C495.192 11.4915 494.878 10.6097 494.878 9.50684V9.27441C494.878 8.54069 495.017 7.88672 495.295 7.3125C495.577 6.73372 495.969 6.28255 496.471 5.95898C496.977 5.63086 497.523 5.4668 498.111 5.4668C499.073 5.4668 499.82 5.78353 500.354 6.41699C500.887 7.05046 501.153 7.95736 501.153 9.1377V9.66406H496.143C496.161 10.3932 496.373 10.9834 496.778 11.4346C497.188 11.8812 497.708 12.1045 498.337 12.1045C498.784 12.1045 499.162 12.0133 499.472 11.8311C499.782 11.6488 500.053 11.4072 500.285 11.1064L501.058 11.708C500.438 12.6605 499.508 13.1367 498.269 13.1367ZM498.111 6.50586C497.601 6.50586 497.173 6.69271 496.826 7.06641C496.48 7.43555 496.266 7.95508 496.184 8.625H499.889V8.5293C499.852 7.88672 499.679 7.38997 499.369 7.03906C499.059 6.68359 498.64 6.50586 498.111 6.50586Z" fill="black"/>
<path d="M594.972 10.4023H590.802L589.865 13H588.512L592.312 3.04688H593.461L597.269 13H595.922L594.972 10.4023ZM591.198 9.32227H594.582L592.887 4.66699L591.198 9.32227ZM599.606 5.60352L599.647 6.5332C600.213 5.82227 600.951 5.4668 601.862 5.4668C603.425 5.4668 604.214 6.34863 604.228 8.1123V13H602.963V8.10547C602.958 7.57227 602.835 7.17806 602.594 6.92285C602.357 6.66764 601.985 6.54004 601.479 6.54004C601.069 6.54004 600.709 6.64941 600.399 6.86816C600.09 7.08691 599.848 7.37402 599.675 7.72949V13H598.41V5.60352H599.606ZM605.827 9.24023C605.827 8.10547 606.096 7.19401 606.634 6.50586C607.172 5.81315 607.876 5.4668 608.746 5.4668C609.612 5.4668 610.298 5.76302 610.804 6.35547V2.5H612.068V13H610.906L610.845 12.207C610.339 12.8268 609.635 13.1367 608.732 13.1367C607.876 13.1367 607.176 12.7858 606.634 12.084C606.096 11.3822 605.827 10.4661 605.827 9.33594V9.24023ZM607.092 9.38379C607.092 10.2223 607.265 10.8786 607.611 11.3525C607.958 11.8265 608.436 12.0635 609.047 12.0635C609.849 12.0635 610.435 11.7035 610.804 10.9834V7.58594C610.425 6.88867 609.844 6.54004 609.061 6.54004C608.441 6.54004 607.958 6.7793 607.611 7.25781C607.265 7.73633 607.092 8.44499 607.092 9.38379ZM617.612 6.73828C617.421 6.70638 617.214 6.69043 616.99 6.69043C616.161 6.69043 615.598 7.04362 615.302 7.75V13H614.037V5.60352H615.268L615.288 6.45801C615.703 5.7972 616.291 5.4668 617.052 5.4668C617.298 5.4668 617.485 5.4987 617.612 5.5625V6.73828ZM618.31 9.2334C618.31 8.50879 618.451 7.8571 618.733 7.27832C619.021 6.69954 619.417 6.25293 619.923 5.93848C620.433 5.62402 621.014 5.4668 621.666 5.4668C622.673 5.4668 623.487 5.81543 624.106 6.5127C624.731 7.20996 625.043 8.13737 625.043 9.29492V9.38379C625.043 10.1038 624.904 10.751 624.626 11.3252C624.353 11.8949 623.958 12.3392 623.443 12.6582C622.933 12.9772 622.345 13.1367 621.68 13.1367C620.677 13.1367 619.864 12.7881 619.239 12.0908C618.619 11.3936 618.31 10.4707 618.31 9.32227V9.2334ZM619.581 9.38379C619.581 10.2041 619.77 10.8626 620.148 11.3594C620.531 11.8561 621.042 12.1045 621.68 12.1045C622.322 12.1045 622.833 11.8538 623.211 11.3525C623.589 10.8467 623.778 10.1403 623.778 9.2334C623.778 8.4222 623.585 7.76595 623.197 7.26465C622.814 6.75879 622.304 6.50586 621.666 6.50586C621.042 6.50586 620.538 6.75423 620.155 7.25098C619.772 7.74772 619.581 8.45866 619.581 9.38379ZM628.003 13H626.738V5.60352H628.003V13ZM626.636 3.6416C626.636 3.43652 626.697 3.26335 626.82 3.12207C626.948 2.98079 627.135 2.91016 627.381 2.91016C627.627 2.91016 627.814 2.98079 627.941 3.12207C628.069 3.26335 628.133 3.43652 628.133 3.6416C628.133 3.84668 628.069 4.01758 627.941 4.1543C627.814 4.29102 627.627 4.35938 627.381 4.35938C627.135 4.35938 626.948 4.29102 626.82 4.1543C626.697 4.01758 626.636 3.84668 626.636 3.6416ZM629.726 9.24023C629.726 8.10547 629.994 7.19401 630.532 6.50586C631.07 5.81315 631.774 5.4668 632.645 5.4668C633.51 5.4668 634.196 5.76302 634.702 6.35547V2.5H635.967V13H634.805L634.743 12.207C634.237 12.8268 633.533 13.1367 632.631 13.1367C631.774 13.1367 631.075 12.7858 630.532 12.084C629.994 11.3822 629.726 10.4661 629.726 9.33594V9.24023ZM630.99 9.38379C630.99 10.2223 631.163 10.8786 631.51 11.3525C631.856 11.8265 632.335 12.0635 632.945 12.0635C633.747 12.0635 634.333 11.7035 634.702 10.9834V7.58594C634.324 6.88867 633.743 6.54004 632.959 6.54004C632.339 6.54004 631.856 6.7793 631.51 7.25781C631.163 7.73633 630.99 8.44499 630.99 9.38379ZM641.606 13V3.04688H644.86C645.94 3.04688 646.752 3.27018 647.294 3.7168C647.841 4.16341 648.114 4.82422 648.114 5.69922C648.114 6.16406 647.982 6.5765 647.718 6.93652C647.453 7.29199 647.093 7.56771 646.638 7.76367C647.175 7.91406 647.599 8.20117 647.909 8.625C648.224 9.04427 648.381 9.54557 648.381 10.1289C648.381 11.0221 648.091 11.724 647.513 12.2344C646.934 12.7448 646.116 13 645.059 13H641.606ZM642.919 8.34473V11.9268H645.086C645.697 11.9268 646.177 11.7695 646.528 11.4551C646.884 11.1361 647.062 10.6986 647.062 10.1426C647.062 8.94401 646.41 8.34473 645.106 8.34473H642.919ZM642.919 7.29199H644.901C645.476 7.29199 645.934 7.14844 646.275 6.86133C646.622 6.57422 646.795 6.18457 646.795 5.69238C646.795 5.14551 646.635 4.74902 646.316 4.50293C645.997 4.25228 645.512 4.12695 644.86 4.12695H642.919V7.29199ZM653.706 6.73828C653.515 6.70638 653.307 6.69043 653.084 6.69043C652.255 6.69043 651.692 7.04362 651.396 7.75V13H650.131V5.60352H651.361L651.382 6.45801C651.797 5.7972 652.384 5.4668 653.146 5.4668C653.392 5.4668 653.578 5.4987 653.706 5.5625V6.73828ZM654.403 9.2334C654.403 8.50879 654.545 7.8571 654.827 7.27832C655.114 6.69954 655.511 6.25293 656.017 5.93848C656.527 5.62402 657.108 5.4668 657.76 5.4668C658.767 5.4668 659.58 5.81543 660.2 6.5127C660.825 7.20996 661.137 8.13737 661.137 9.29492V9.38379C661.137 10.1038 660.998 10.751 660.72 11.3252C660.446 11.8949 660.052 12.3392 659.537 12.6582C659.027 12.9772 658.439 13.1367 657.773 13.1367C656.771 13.1367 655.957 12.7881 655.333 12.0908C654.713 11.3936 654.403 10.4707 654.403 9.32227V9.2334ZM655.675 9.38379C655.675 10.2041 655.864 10.8626 656.242 11.3594C656.625 11.8561 657.135 12.1045 657.773 12.1045C658.416 12.1045 658.926 11.8538 659.305 11.3525C659.683 10.8467 659.872 10.1403 659.872 9.2334C659.872 8.4222 659.678 7.76595 659.291 7.26465C658.908 6.75879 658.398 6.50586 657.76 6.50586C657.135 6.50586 656.632 6.75423 656.249 7.25098C655.866 7.74772 655.675 8.45866 655.675 9.38379ZM669.271 11.2568L670.693 5.60352H671.958L669.805 13H668.779L666.981 7.39453L665.231 13H664.206L662.06 5.60352H663.317L664.773 11.1406L666.496 5.60352H667.515L669.271 11.2568ZM677.557 11.0381C677.557 10.6963 677.427 10.432 677.167 10.2451C676.912 10.0537 676.463 9.88965 675.82 9.75293C675.182 9.61621 674.674 9.45215 674.296 9.26074C673.922 9.06934 673.644 8.84147 673.462 8.57715C673.284 8.31283 673.195 7.99837 673.195 7.63379C673.195 7.02767 673.451 6.51497 673.961 6.0957C674.476 5.67643 675.132 5.4668 675.93 5.4668C676.768 5.4668 677.447 5.68327 677.967 6.11621C678.491 6.54915 678.753 7.10286 678.753 7.77734H677.481C677.481 7.43099 677.333 7.13249 677.037 6.88184C676.745 6.63118 676.376 6.50586 675.93 6.50586C675.469 6.50586 675.109 6.60612 674.85 6.80664C674.59 7.00716 674.46 7.26921 674.46 7.59277C674.46 7.89811 674.581 8.12826 674.822 8.2832C675.064 8.43815 675.499 8.58626 676.128 8.72754C676.761 8.86882 677.274 9.03743 677.666 9.2334C678.058 9.42936 678.347 9.66634 678.534 9.94434C678.726 10.2178 678.821 10.5527 678.821 10.9492C678.821 11.61 678.557 12.141 678.028 12.542C677.5 12.9385 676.814 13.1367 675.971 13.1367C675.378 13.1367 674.854 13.0319 674.398 12.8223C673.943 12.6126 673.585 12.321 673.325 11.9473C673.07 11.569 672.942 11.1611 672.942 10.7236H674.207C674.23 11.1475 674.398 11.4847 674.713 11.7354C675.032 11.9814 675.451 12.1045 675.971 12.1045C676.449 12.1045 676.832 12.0088 677.119 11.8174C677.411 11.6214 677.557 11.3617 677.557 11.0381ZM683.538 13.1367C682.535 13.1367 681.72 12.8086 681.091 12.1523C680.462 11.4915 680.147 10.6097 680.147 9.50684V9.27441C680.147 8.54069 680.286 7.88672 680.564 7.3125C680.847 6.73372 681.239 6.28255 681.74 5.95898C682.246 5.63086 682.793 5.4668 683.381 5.4668C684.342 5.4668 685.09 5.78353 685.623 6.41699C686.156 7.05046 686.423 7.95736 686.423 9.1377V9.66406H681.412C681.43 10.3932 681.642 10.9834 682.048 11.4346C682.458 11.8812 682.978 12.1045 683.606 12.1045C684.053 12.1045 684.431 12.0133 684.741 11.8311C685.051 11.6488 685.322 11.4072 685.555 11.1064L686.327 11.708C685.707 12.6605 684.778 13.1367 683.538 13.1367ZM683.381 6.50586C682.87 6.50586 682.442 6.69271 682.096 7.06641C681.749 7.43555 681.535 7.95508 681.453 8.625H685.158V8.5293C685.122 7.88672 684.949 7.38997 684.639 7.03906C684.329 6.68359 683.91 6.50586 683.381 6.50586ZM691.468 6.73828C691.276 6.70638 691.069 6.69043 690.846 6.69043C690.016 6.69043 689.453 7.04362 689.157 7.75V13H687.893V5.60352H689.123L689.144 6.45801C689.558 5.7972 690.146 5.4668 690.907 5.4668C691.153 5.4668 691.34 5.4987 691.468 5.5625V6.73828Z" fill="black"/>
<path d="M787.361 9.8418C787.238 10.8945 786.849 11.708 786.192 12.2822C785.541 12.8519 784.673 13.1367 783.588 13.1367C782.412 13.1367 781.469 12.7152 780.758 11.8721C780.051 11.029 779.698 9.90104 779.698 8.48828V7.53125C779.698 6.60612 779.862 5.79264 780.19 5.09082C780.523 4.389 780.993 3.85124 781.599 3.47754C782.205 3.09928 782.907 2.91016 783.704 2.91016C784.761 2.91016 785.609 3.20638 786.247 3.79883C786.885 4.38672 787.257 5.20247 787.361 6.24609H786.042C785.928 5.45312 785.68 4.87891 785.297 4.52344C784.919 4.16797 784.388 3.99023 783.704 3.99023C782.866 3.99023 782.207 4.30013 781.729 4.91992C781.255 5.53971 781.018 6.42155 781.018 7.56543V8.5293C781.018 9.60938 781.243 10.4684 781.694 11.1064C782.146 11.7445 782.777 12.0635 783.588 12.0635C784.317 12.0635 784.875 11.8994 785.263 11.5713C785.655 11.2386 785.914 10.6621 786.042 9.8418H787.361ZM793.527 13C793.454 12.8542 793.395 12.5944 793.35 12.2207C792.762 12.8314 792.06 13.1367 791.244 13.1367C790.515 13.1367 789.916 12.9316 789.446 12.5215C788.981 12.1068 788.749 11.5827 788.749 10.9492C788.749 10.179 789.041 9.58203 789.624 9.1582C790.212 8.72982 791.037 8.51562 792.099 8.51562H793.329V7.93457C793.329 7.49251 793.197 7.1416 792.933 6.88184C792.668 6.61751 792.279 6.48535 791.764 6.48535C791.312 6.48535 790.934 6.59928 790.629 6.82715C790.324 7.05501 790.171 7.33073 790.171 7.6543H788.899C788.899 7.28516 789.029 6.92969 789.289 6.58789C789.553 6.24154 789.909 5.9681 790.355 5.76758C790.807 5.56706 791.301 5.4668 791.839 5.4668C792.691 5.4668 793.359 5.68099 793.842 6.10938C794.325 6.5332 794.576 7.11882 794.594 7.86621V11.2705C794.594 11.9495 794.68 12.4896 794.854 12.8906V13H793.527ZM791.429 12.0361C791.825 12.0361 792.201 11.9336 792.557 11.7285C792.912 11.5234 793.17 11.2568 793.329 10.9287V9.41113H792.338C790.788 9.41113 790.014 9.86458 790.014 10.7715C790.014 11.168 790.146 11.4779 790.41 11.7012C790.674 11.9245 791.014 12.0361 791.429 12.0361ZM802.824 9.38379C802.824 10.5094 802.567 11.4163 802.052 12.1045C801.537 12.7926 800.84 13.1367 799.96 13.1367C799.062 13.1367 798.356 12.8519 797.841 12.2822V15.8438H796.576V5.60352H797.731L797.793 6.42383C798.308 5.78581 799.023 5.4668 799.939 5.4668C800.828 5.4668 801.53 5.80176 802.045 6.47168C802.564 7.1416 802.824 8.07357 802.824 9.26758V9.38379ZM801.56 9.24023C801.56 8.40625 801.382 7.74772 801.026 7.26465C800.671 6.78158 800.183 6.54004 799.563 6.54004C798.798 6.54004 798.224 6.87956 797.841 7.55859V11.0928C798.219 11.7673 798.798 12.1045 799.577 12.1045C800.183 12.1045 800.664 11.8652 801.02 11.3867C801.38 10.9036 801.56 10.1882 801.56 9.24023ZM809.004 13C808.931 12.8542 808.872 12.5944 808.826 12.2207C808.238 12.8314 807.536 13.1367 806.721 13.1367C805.992 13.1367 805.392 12.9316 804.923 12.5215C804.458 12.1068 804.226 11.5827 804.226 10.9492C804.226 10.179 804.517 9.58203 805.101 9.1582C805.688 8.72982 806.513 8.51562 807.575 8.51562H808.806V7.93457C808.806 7.49251 808.674 7.1416 808.409 6.88184C808.145 6.61751 807.755 6.48535 807.24 6.48535C806.789 6.48535 806.411 6.59928 806.105 6.82715C805.8 7.05501 805.647 7.33073 805.647 7.6543H804.376C804.376 7.28516 804.506 6.92969 804.766 6.58789C805.03 6.24154 805.385 5.9681 805.832 5.76758C806.283 5.56706 806.778 5.4668 807.315 5.4668C808.168 5.4668 808.835 5.68099 809.318 6.10938C809.801 6.5332 810.052 7.11882 810.07 7.86621V11.2705C810.07 11.9495 810.157 12.4896 810.33 12.8906V13H809.004ZM806.905 12.0361C807.302 12.0361 807.678 11.9336 808.033 11.7285C808.389 11.5234 808.646 11.2568 808.806 10.9287V9.41113H807.814C806.265 9.41113 805.49 9.86458 805.49 10.7715C805.49 11.168 805.622 11.4779 805.887 11.7012C806.151 11.9245 806.491 12.0361 806.905 12.0361ZM815.02 12.1045C815.471 12.1045 815.865 11.9678 816.202 11.6943C816.539 11.4209 816.726 11.0791 816.763 10.6689H817.959C817.936 11.0928 817.79 11.4961 817.521 11.8789C817.253 12.2617 816.893 12.5671 816.441 12.7949C815.995 13.0228 815.521 13.1367 815.02 13.1367C814.012 13.1367 813.21 12.8018 812.613 12.1318C812.021 11.4574 811.725 10.5368 811.725 9.37012V9.1582C811.725 8.43815 811.857 7.79785 812.121 7.2373C812.385 6.67676 812.764 6.24154 813.256 5.93164C813.753 5.62174 814.338 5.4668 815.013 5.4668C815.842 5.4668 816.53 5.71517 817.077 6.21191C817.629 6.70866 817.923 7.35352 817.959 8.14648H816.763C816.726 7.66797 816.544 7.27604 816.216 6.9707C815.892 6.66081 815.491 6.50586 815.013 6.50586C814.37 6.50586 813.871 6.73828 813.516 7.20312C813.165 7.66341 812.989 8.33105 812.989 9.20605V9.44531C812.989 10.2975 813.165 10.9538 813.516 11.4141C813.867 11.8743 814.368 12.1045 815.02 12.1045ZM820.755 13H819.49V5.60352H820.755V13ZM819.388 3.6416C819.388 3.43652 819.449 3.26335 819.572 3.12207C819.7 2.98079 819.887 2.91016 820.133 2.91016C820.379 2.91016 820.566 2.98079 820.693 3.12207C820.821 3.26335 820.885 3.43652 820.885 3.6416C820.885 3.84668 820.821 4.01758 820.693 4.1543C820.566 4.29102 820.379 4.35938 820.133 4.35938C819.887 4.35938 819.7 4.29102 819.572 4.1543C819.449 4.01758 819.388 3.84668 819.388 3.6416ZM824.501 3.8125V5.60352H825.882V6.58105H824.501V11.168C824.501 11.4642 824.562 11.6875 824.686 11.8379C824.809 11.9837 825.018 12.0566 825.314 12.0566C825.46 12.0566 825.661 12.0293 825.916 11.9746V13C825.583 13.0911 825.26 13.1367 824.945 13.1367C824.38 13.1367 823.954 12.9658 823.667 12.624C823.38 12.2822 823.236 11.7969 823.236 11.168V6.58105H821.89V5.60352H823.236V3.8125H824.501ZM826.894 9.2334C826.894 8.50879 827.035 7.8571 827.317 7.27832C827.604 6.69954 828.001 6.25293 828.507 5.93848C829.017 5.62402 829.598 5.4668 830.25 5.4668C831.257 5.4668 832.071 5.81543 832.69 6.5127C833.315 7.20996 833.627 8.13737 833.627 9.29492V9.38379C833.627 10.1038 833.488 10.751 833.21 11.3252C832.937 11.8949 832.542 12.3392 832.027 12.6582C831.517 12.9772 830.929 13.1367 830.264 13.1367C829.261 13.1367 828.448 12.7881 827.823 12.0908C827.203 11.3936 826.894 10.4707 826.894 9.32227V9.2334ZM828.165 9.38379C828.165 10.2041 828.354 10.8626 828.732 11.3594C829.115 11.8561 829.626 12.1045 830.264 12.1045C830.906 12.1045 831.417 11.8538 831.795 11.3525C832.173 10.8467 832.362 10.1403 832.362 9.2334C832.362 8.4222 832.169 7.76595 831.781 7.26465C831.398 6.75879 830.888 6.50586 830.25 6.50586C829.626 6.50586 829.122 6.75423 828.739 7.25098C828.356 7.74772 828.165 8.45866 828.165 9.38379ZM838.788 6.73828C838.597 6.70638 838.389 6.69043 838.166 6.69043C837.337 6.69043 836.774 7.04362 836.478 7.75V13H835.213V5.60352H836.443L836.464 6.45801C836.879 5.7972 837.466 5.4668 838.228 5.4668C838.474 5.4668 838.66 5.4987 838.788 5.5625V6.73828Z" fill="black"/>
<path d="M41.0039 100.24C41.0039 99.0872 41.2705 98.1712 41.8037 97.4922C42.3369 96.8086 43.0433 96.4668 43.9229 96.4668C44.8252 96.4668 45.5293 96.7858 46.0352 97.4238L46.0967 96.6035H47.252V103.822C47.252 104.779 46.9671 105.534 46.3975 106.085C45.8324 106.636 45.0713 106.912 44.1143 106.912C43.5811 106.912 43.0592 106.798 42.5488 106.57C42.0384 106.342 41.6488 106.03 41.3799 105.634L42.0361 104.875C42.5785 105.545 43.2415 105.88 44.0254 105.88C44.6406 105.88 45.1191 105.707 45.4609 105.36C45.8073 105.014 45.9805 104.526 45.9805 103.897V103.262C45.4746 103.845 44.7842 104.137 43.9092 104.137C43.0433 104.137 42.3415 103.788 41.8037 103.091C41.2705 102.394 41.0039 101.443 41.0039 100.24ZM42.2754 100.384C42.2754 101.218 42.4463 101.874 42.7881 102.353C43.1299 102.826 43.6084 103.063 44.2236 103.063C45.0212 103.063 45.6068 102.701 45.9805 101.977V98.5996C45.5931 97.8932 45.012 97.54 44.2373 97.54C43.6221 97.54 43.1413 97.7793 42.7949 98.2578C42.4486 98.7363 42.2754 99.445 42.2754 100.384ZM52.7412 97.7383C52.5498 97.7064 52.3424 97.6904 52.1191 97.6904C51.2897 97.6904 50.7269 98.0436 50.4307 98.75V104H49.166V96.6035H50.3965L50.417 97.458C50.8317 96.7972 51.4196 96.4668 52.1807 96.4668C52.4268 96.4668 52.6136 96.4987 52.7412 96.5625V97.7383ZM58.2031 104C58.1302 103.854 58.071 103.594 58.0254 103.221C57.4375 103.831 56.7357 104.137 55.9199 104.137C55.1908 104.137 54.5915 103.932 54.1221 103.521C53.6572 103.107 53.4248 102.583 53.4248 101.949C53.4248 101.179 53.7165 100.582 54.2998 100.158C54.8877 99.7298 55.7126 99.5156 56.7744 99.5156H58.0049V98.9346C58.0049 98.4925 57.8727 98.1416 57.6084 97.8818C57.3441 97.6175 56.9544 97.4854 56.4395 97.4854C55.9883 97.4854 55.61 97.5993 55.3047 97.8271C54.9993 98.055 54.8467 98.3307 54.8467 98.6543H53.5752C53.5752 98.2852 53.7051 97.9297 53.9648 97.5879C54.2292 97.2415 54.5846 96.9681 55.0312 96.7676C55.4824 96.5671 55.9769 96.4668 56.5146 96.4668C57.3669 96.4668 58.0345 96.681 58.5176 97.1094C59.0007 97.5332 59.2513 98.1188 59.2695 98.8662V102.271C59.2695 102.95 59.3561 103.49 59.5293 103.891V104H58.2031ZM56.1045 103.036C56.501 103.036 56.877 102.934 57.2324 102.729C57.5879 102.523 57.8454 102.257 58.0049 101.929V100.411H57.0137C55.4642 100.411 54.6895 100.865 54.6895 101.771C54.6895 102.168 54.8216 102.478 55.0859 102.701C55.3503 102.924 55.6898 103.036 56.1045 103.036ZM64.2188 103.104C64.6699 103.104 65.0641 102.968 65.4014 102.694C65.7386 102.421 65.9255 102.079 65.9619 101.669H67.1582C67.1354 102.093 66.9896 102.496 66.7207 102.879C66.4518 103.262 66.0918 103.567 65.6406 103.795C65.194 104.023 64.7201 104.137 64.2188 104.137C63.2116 104.137 62.4095 103.802 61.8125 103.132C61.2201 102.457 60.9238 101.537 60.9238 100.37V100.158C60.9238 99.4382 61.056 98.7979 61.3203 98.2373C61.5846 97.6768 61.9629 97.2415 62.4551 96.9316C62.9518 96.6217 63.5374 96.4668 64.2119 96.4668C65.0413 96.4668 65.7295 96.7152 66.2764 97.2119C66.8278 97.7087 67.1217 98.3535 67.1582 99.1465H65.9619C65.9255 98.668 65.7432 98.276 65.415 97.9707C65.0915 97.6608 64.6904 97.5059 64.2119 97.5059C63.5693 97.5059 63.0703 97.7383 62.7148 98.2031C62.3639 98.6634 62.1885 99.3311 62.1885 100.206V100.445C62.1885 101.298 62.3639 101.954 62.7148 102.414C63.0658 102.874 63.5671 103.104 64.2188 103.104ZM71.6494 104.137C70.6468 104.137 69.8311 103.809 69.2021 103.152C68.5732 102.492 68.2588 101.61 68.2588 100.507V100.274C68.2588 99.5407 68.3978 98.8867 68.6758 98.3125C68.9583 97.7337 69.3503 97.2826 69.8516 96.959C70.3574 96.6309 70.9043 96.4668 71.4922 96.4668C72.4538 96.4668 73.2012 96.7835 73.7344 97.417C74.2676 98.0505 74.5342 98.9574 74.5342 100.138V100.664H69.5234C69.5417 101.393 69.7536 101.983 70.1592 102.435C70.5693 102.881 71.0889 103.104 71.7178 103.104C72.1644 103.104 72.5426 103.013 72.8525 102.831C73.1624 102.649 73.4336 102.407 73.666 102.106L74.4385 102.708C73.8187 103.66 72.889 104.137 71.6494 104.137ZM71.4922 97.5059C70.9818 97.5059 70.5534 97.6927 70.207 98.0664C69.8607 98.4355 69.6465 98.9551 69.5645 99.625H73.2695V99.5293C73.2331 98.8867 73.0599 98.39 72.75 98.0391C72.4401 97.6836 72.0208 97.5059 71.4922 97.5059ZM76.626 104V97.5811H75.457V96.6035H76.626V95.8447C76.626 95.0518 76.8379 94.4388 77.2617 94.0059C77.6855 93.5729 78.2848 93.3564 79.0596 93.3564C79.3512 93.3564 79.6406 93.3952 79.9277 93.4727L79.8594 94.498C79.6452 94.457 79.4173 94.4365 79.1758 94.4365C78.7656 94.4365 78.4489 94.5573 78.2256 94.7988C78.0023 95.0358 77.8906 95.3776 77.8906 95.8242V96.6035H79.4697V97.5811H77.8906V104H76.626ZM85.4375 103.269C84.9453 103.847 84.223 104.137 83.2705 104.137C82.4821 104.137 81.8805 103.909 81.4658 103.453C81.0557 102.993 80.8483 102.314 80.8438 101.416V96.6035H82.1084V101.382C82.1084 102.503 82.5641 103.063 83.4756 103.063C84.4417 103.063 85.0843 102.703 85.4033 101.983V96.6035H86.668V104H85.4648L85.4375 103.269ZM89.9697 104H88.7051V93.5H89.9697V104ZM95.165 100.24C95.165 99.1055 95.4339 98.194 95.9717 97.5059C96.5094 96.8132 97.2135 96.4668 98.084 96.4668C98.9499 96.4668 99.6357 96.763 100.142 97.3555V93.5H101.406V104H100.244L100.183 103.207C99.6768 103.827 98.9727 104.137 98.0703 104.137C97.2135 104.137 96.514 103.786 95.9717 103.084C95.4339 102.382 95.165 101.466 95.165 100.336V100.24ZM96.4297 100.384C96.4297 101.222 96.6029 101.879 96.9492 102.353C97.2956 102.826 97.7741 103.063 98.3848 103.063C99.1868 103.063 99.7725 102.703 100.142 101.983V98.5859C99.7633 97.8887 99.1823 97.54 98.3984 97.54C97.7786 97.54 97.2956 97.7793 96.9492 98.2578C96.6029 98.7363 96.4297 99.445 96.4297 100.384ZM106.444 104.137C105.442 104.137 104.626 103.809 103.997 103.152C103.368 102.492 103.054 101.61 103.054 100.507V100.274C103.054 99.5407 103.193 98.8867 103.471 98.3125C103.753 97.7337 104.145 97.2826 104.646 96.959C105.152 96.6309 105.699 96.4668 106.287 96.4668C107.249 96.4668 107.996 96.7835 108.529 97.417C109.062 98.0505 109.329 98.9574 109.329 100.138V100.664H104.318C104.337 101.393 104.549 101.983 104.954 102.435C105.364 102.881 105.884 103.104 106.513 103.104C106.959 103.104 107.338 103.013 107.647 102.831C107.957 102.649 108.229 102.407 108.461 102.106L109.233 102.708C108.614 103.66 107.684 104.137 106.444 104.137ZM106.287 97.5059C105.777 97.5059 105.348 97.6927 105.002 98.0664C104.656 98.4355 104.441 98.9551 104.359 99.625H108.064V99.5293C108.028 98.8867 107.855 98.39 107.545 98.0391C107.235 97.6836 106.816 97.5059 106.287 97.5059ZM110.498 100.24C110.498 99.0872 110.765 98.1712 111.298 97.4922C111.831 96.8086 112.537 96.4668 113.417 96.4668C114.319 96.4668 115.023 96.7858 115.529 97.4238L115.591 96.6035H116.746V103.822C116.746 104.779 116.461 105.534 115.892 106.085C115.326 106.636 114.565 106.912 113.608 106.912C113.075 106.912 112.553 106.798 112.043 106.57C111.533 106.342 111.143 106.03 110.874 105.634L111.53 104.875C112.073 105.545 112.736 105.88 113.52 105.88C114.135 105.88 114.613 105.707 114.955 105.36C115.301 105.014 115.475 104.526 115.475 103.897V103.262C114.969 103.845 114.278 104.137 113.403 104.137C112.537 104.137 111.836 103.788 111.298 103.091C110.765 102.394 110.498 101.443 110.498 100.24ZM111.77 100.384C111.77 101.218 111.94 101.874 112.282 102.353C112.624 102.826 113.103 103.063 113.718 103.063C114.515 103.063 115.101 102.701 115.475 101.977V98.5996C115.087 97.8932 114.506 97.54 113.731 97.54C113.116 97.54 112.635 97.7793 112.289 98.2578C111.943 98.7363 111.77 99.445 111.77 100.384ZM122.235 97.7383C122.044 97.7064 121.837 97.6904 121.613 97.6904C120.784 97.6904 120.221 98.0436 119.925 98.75V104H118.66V96.6035H119.891L119.911 97.458C120.326 96.7972 120.914 96.4668 121.675 96.4668C121.921 96.4668 122.108 96.4987 122.235 96.5625V97.7383ZM127.697 104C127.624 103.854 127.565 103.594 127.52 103.221C126.932 103.831 126.23 104.137 125.414 104.137C124.685 104.137 124.086 103.932 123.616 103.521C123.151 103.107 122.919 102.583 122.919 101.949C122.919 101.179 123.211 100.582 123.794 100.158C124.382 99.7298 125.207 99.5156 126.269 99.5156H127.499V98.9346C127.499 98.4925 127.367 98.1416 127.103 97.8818C126.838 97.6175 126.449 97.4854 125.934 97.4854C125.482 97.4854 125.104 97.5993 124.799 97.8271C124.493 98.055 124.341 98.3307 124.341 98.6543H123.069C123.069 98.2852 123.199 97.9297 123.459 97.5879C123.723 97.2415 124.079 96.9681 124.525 96.7676C124.977 96.5671 125.471 96.4668 126.009 96.4668C126.861 96.4668 127.529 96.681 128.012 97.1094C128.495 97.5332 128.745 98.1188 128.764 98.8662V102.271C128.764 102.95 128.85 103.49 129.023 103.891V104H127.697ZM125.599 103.036C125.995 103.036 126.371 102.934 126.727 102.729C127.082 102.523 127.34 102.257 127.499 101.929V100.411H126.508C124.958 100.411 124.184 100.865 124.184 101.771C124.184 102.168 124.316 102.478 124.58 102.701C124.844 102.924 125.184 103.036 125.599 103.036ZM130.438 100.24C130.438 99.1055 130.707 98.194 131.245 97.5059C131.783 96.8132 132.487 96.4668 133.357 96.4668C134.223 96.4668 134.909 96.763 135.415 97.3555V93.5H136.68V104H135.518L135.456 103.207C134.95 103.827 134.246 104.137 133.344 104.137C132.487 104.137 131.787 103.786 131.245 103.084C130.707 102.382 130.438 101.466 130.438 100.336V100.24ZM131.703 100.384C131.703 101.222 131.876 101.879 132.223 102.353C132.569 102.826 133.048 103.063 133.658 103.063C134.46 103.063 135.046 102.703 135.415 101.983V98.5859C135.037 97.8887 134.456 97.54 133.672 97.54C133.052 97.54 132.569 97.7793 132.223 98.2578C131.876 98.7363 131.703 99.445 131.703 100.384ZM143.215 104C143.142 103.854 143.083 103.594 143.037 103.221C142.449 103.831 141.747 104.137 140.932 104.137C140.202 104.137 139.603 103.932 139.134 103.521C138.669 103.107 138.437 102.583 138.437 101.949C138.437 101.179 138.728 100.582 139.312 100.158C139.899 99.7298 140.724 99.5156 141.786 99.5156H143.017V98.9346C143.017 98.4925 142.884 98.1416 142.62 97.8818C142.356 97.6175 141.966 97.4854 141.451 97.4854C141 97.4854 140.622 97.5993 140.316 97.8271C140.011 98.055 139.858 98.3307 139.858 98.6543H138.587C138.587 98.2852 138.717 97.9297 138.977 97.5879C139.241 97.2415 139.596 96.9681 140.043 96.7676C140.494 96.5671 140.989 96.4668 141.526 96.4668C142.379 96.4668 143.046 96.681 143.529 97.1094C144.012 97.5332 144.263 98.1188 144.281 98.8662V102.271C144.281 102.95 144.368 103.49 144.541 103.891V104H143.215ZM141.116 103.036C141.513 103.036 141.889 102.934 142.244 102.729C142.6 102.523 142.857 102.257 143.017 101.929V100.411H142.025C140.476 100.411 139.701 100.865 139.701 101.771C139.701 102.168 139.833 102.478 140.098 102.701C140.362 102.924 140.701 103.036 141.116 103.036ZM147.979 94.8125V96.6035H149.36V97.5811H147.979V102.168C147.979 102.464 148.041 102.688 148.164 102.838C148.287 102.984 148.497 103.057 148.793 103.057C148.939 103.057 149.139 103.029 149.395 102.975V104C149.062 104.091 148.738 104.137 148.424 104.137C147.859 104.137 147.433 103.966 147.146 103.624C146.858 103.282 146.715 102.797 146.715 102.168V97.5811H145.368V96.6035H146.715V94.8125H147.979ZM152.218 104H150.953V96.6035H152.218V104ZM150.851 94.6416C150.851 94.4365 150.912 94.2633 151.035 94.1221C151.163 93.9808 151.35 93.9102 151.596 93.9102C151.842 93.9102 152.029 93.9808 152.156 94.1221C152.284 94.2633 152.348 94.4365 152.348 94.6416C152.348 94.8467 152.284 95.0176 152.156 95.1543C152.029 95.291 151.842 95.3594 151.596 95.3594C151.35 95.3594 151.163 95.291 151.035 95.1543C150.912 95.0176 150.851 94.8467 150.851 94.6416ZM153.913 100.233C153.913 99.5088 154.054 98.8571 154.337 98.2783C154.624 97.6995 155.021 97.2529 155.526 96.9385C156.037 96.624 156.618 96.4668 157.27 96.4668C158.277 96.4668 159.09 96.8154 159.71 97.5127C160.334 98.21 160.646 99.1374 160.646 100.295V100.384C160.646 101.104 160.507 101.751 160.229 102.325C159.956 102.895 159.562 103.339 159.047 103.658C158.536 103.977 157.949 104.137 157.283 104.137C156.281 104.137 155.467 103.788 154.843 103.091C154.223 102.394 153.913 101.471 153.913 100.322V100.233ZM155.185 100.384C155.185 101.204 155.374 101.863 155.752 102.359C156.135 102.856 156.645 103.104 157.283 103.104C157.926 103.104 158.436 102.854 158.814 102.353C159.193 101.847 159.382 101.14 159.382 100.233C159.382 99.4222 159.188 98.766 158.801 98.2646C158.418 97.7588 157.908 97.5059 157.27 97.5059C156.645 97.5059 156.142 97.7542 155.759 98.251C155.376 98.7477 155.185 99.4587 155.185 100.384ZM163.429 96.6035L163.47 97.5332C164.035 96.8223 164.773 96.4668 165.685 96.4668C167.248 96.4668 168.036 97.3486 168.05 99.1123V104H166.785V99.1055C166.781 98.5723 166.658 98.1781 166.416 97.9229C166.179 97.6676 165.808 97.54 165.302 97.54C164.892 97.54 164.532 97.6494 164.222 97.8682C163.912 98.0869 163.67 98.374 163.497 98.7295V104H162.232V96.6035H163.429Z" fill="black"/>
<path d="M428.479 95.3838C428.479 96.5094 428.221 97.4163 427.706 98.1045C427.191 98.7926 426.494 99.1367 425.614 99.1367C424.716 99.1367 424.01 98.8519 423.495 98.2822V101.844H422.23V91.6035H423.386L423.447 92.4238C423.962 91.7858 424.678 91.4668 425.594 91.4668C426.482 91.4668 427.184 91.8018 427.699 92.4717C428.219 93.1416 428.479 94.0736 428.479 95.2676V95.3838ZM427.214 95.2402C427.214 94.4062 427.036 93.7477 426.681 93.2646C426.325 92.7816 425.838 92.54 425.218 92.54C424.452 92.54 423.878 92.8796 423.495 93.5586V97.0928C423.873 97.7673 424.452 98.1045 425.231 98.1045C425.838 98.1045 426.318 97.8652 426.674 97.3867C427.034 96.9036 427.214 96.1882 427.214 95.2402ZM433.667 92.7383C433.476 92.7064 433.268 92.6904 433.045 92.6904C432.215 92.6904 431.653 93.0436 431.356 93.75V99H430.092V91.6035H431.322L431.343 92.458C431.757 91.7972 432.345 91.4668 433.106 91.4668C433.353 91.4668 433.539 91.4987 433.667 91.5625V92.7383ZM434.364 95.2334C434.364 94.5088 434.506 93.8571 434.788 93.2783C435.075 92.6995 435.472 92.2529 435.978 91.9385C436.488 91.624 437.069 91.4668 437.721 91.4668C438.728 91.4668 439.541 91.8154 440.161 92.5127C440.785 93.21 441.098 94.1374 441.098 95.2949V95.3838C441.098 96.1038 440.959 96.751 440.681 97.3252C440.407 97.8949 440.013 98.3392 439.498 98.6582C438.988 98.9772 438.4 99.1367 437.734 99.1367C436.732 99.1367 435.918 98.7881 435.294 98.0908C434.674 97.3936 434.364 96.4707 434.364 95.3223V95.2334ZM435.636 95.3838C435.636 96.2041 435.825 96.8626 436.203 97.3594C436.586 97.8561 437.096 98.1045 437.734 98.1045C438.377 98.1045 438.887 97.8538 439.266 97.3525C439.644 96.8467 439.833 96.1403 439.833 95.2334C439.833 94.4222 439.639 93.766 439.252 93.2646C438.869 92.7588 438.359 92.5059 437.721 92.5059C437.096 92.5059 436.593 92.7542 436.21 93.251C435.827 93.7477 435.636 94.4587 435.636 95.3838ZM442.383 95.2402C442.383 94.0872 442.649 93.1712 443.183 92.4922C443.716 91.8086 444.422 91.4668 445.302 91.4668C446.204 91.4668 446.908 91.7858 447.414 92.4238L447.476 91.6035H448.631V98.8223C448.631 99.7793 448.346 100.534 447.776 101.085C447.211 101.636 446.45 101.912 445.493 101.912C444.96 101.912 444.438 101.798 443.928 101.57C443.417 101.342 443.028 101.03 442.759 100.634L443.415 99.875C443.957 100.545 444.62 100.88 445.404 100.88C446.02 100.88 446.498 100.707 446.84 100.36C447.186 100.014 447.359 99.5264 447.359 98.8975V98.2617C446.854 98.8451 446.163 99.1367 445.288 99.1367C444.422 99.1367 443.72 98.7881 443.183 98.0908C442.649 97.3936 442.383 96.4434 442.383 95.2402ZM443.654 95.3838C443.654 96.2178 443.825 96.874 444.167 97.3525C444.509 97.8265 444.987 98.0635 445.603 98.0635C446.4 98.0635 446.986 97.7012 447.359 96.9766V93.5996C446.972 92.8932 446.391 92.54 445.616 92.54C445.001 92.54 444.52 92.7793 444.174 93.2578C443.827 93.7363 443.654 94.445 443.654 95.3838ZM454.12 92.7383C453.929 92.7064 453.721 92.6904 453.498 92.6904C452.669 92.6904 452.106 93.0436 451.81 93.75V99H450.545V91.6035H451.775L451.796 92.458C452.211 91.7972 452.799 91.4668 453.56 91.4668C453.806 91.4668 453.993 91.4987 454.12 91.5625V92.7383ZM458.222 99.1367C457.219 99.1367 456.403 98.8086 455.774 98.1523C455.146 97.4915 454.831 96.6097 454.831 95.5068V95.2744C454.831 94.5407 454.97 93.8867 455.248 93.3125C455.531 92.7337 455.923 92.2826 456.424 91.959C456.93 91.6309 457.477 91.4668 458.064 91.4668C459.026 91.4668 459.773 91.7835 460.307 92.417C460.84 93.0505 461.106 93.9574 461.106 95.1377V95.6641H456.096C456.114 96.3932 456.326 96.9834 456.731 97.4346C457.142 97.8812 457.661 98.1045 458.29 98.1045C458.737 98.1045 459.115 98.0133 459.425 97.8311C459.735 97.6488 460.006 97.4072 460.238 97.1064L461.011 97.708C460.391 98.6605 459.461 99.1367 458.222 99.1367ZM458.064 92.5059C457.554 92.5059 457.126 92.6927 456.779 93.0664C456.433 93.4355 456.219 93.9551 456.137 94.625H459.842V94.5293C459.805 93.8867 459.632 93.39 459.322 93.0391C459.012 92.6836 458.593 92.5059 458.064 92.5059ZM466.883 97.0381C466.883 96.6963 466.753 96.432 466.493 96.2451C466.238 96.0537 465.789 95.8896 465.146 95.7529C464.508 95.6162 464 95.4521 463.622 95.2607C463.248 95.0693 462.97 94.8415 462.788 94.5771C462.61 94.3128 462.521 93.9984 462.521 93.6338C462.521 93.0277 462.777 92.515 463.287 92.0957C463.802 91.6764 464.458 91.4668 465.256 91.4668C466.094 91.4668 466.773 91.6833 467.293 92.1162C467.817 92.5492 468.079 93.1029 468.079 93.7773H466.808C466.808 93.431 466.66 93.1325 466.363 92.8818C466.072 92.6312 465.702 92.5059 465.256 92.5059C464.796 92.5059 464.436 92.6061 464.176 92.8066C463.916 93.0072 463.786 93.2692 463.786 93.5928C463.786 93.8981 463.907 94.1283 464.148 94.2832C464.39 94.4382 464.825 94.5863 465.454 94.7275C466.088 94.8688 466.6 95.0374 466.992 95.2334C467.384 95.4294 467.674 95.6663 467.86 95.9443C468.052 96.2178 468.147 96.5527 468.147 96.9492C468.147 97.61 467.883 98.141 467.354 98.542C466.826 98.9385 466.14 99.1367 465.297 99.1367C464.704 99.1367 464.18 99.0319 463.725 98.8223C463.269 98.6126 462.911 98.321 462.651 97.9473C462.396 97.569 462.269 97.1611 462.269 96.7236H463.533C463.556 97.1475 463.725 97.4847 464.039 97.7354C464.358 97.9814 464.777 98.1045 465.297 98.1045C465.775 98.1045 466.158 98.0088 466.445 97.8174C466.737 97.6214 466.883 97.3617 466.883 97.0381ZM474.102 97.0381C474.102 96.6963 473.972 96.432 473.712 96.2451C473.457 96.0537 473.008 95.8896 472.365 95.7529C471.727 95.6162 471.219 95.4521 470.841 95.2607C470.467 95.0693 470.189 94.8415 470.007 94.5771C469.829 94.3128 469.74 93.9984 469.74 93.6338C469.74 93.0277 469.995 92.515 470.506 92.0957C471.021 91.6764 471.677 91.4668 472.475 91.4668C473.313 91.4668 473.992 91.6833 474.512 92.1162C475.036 92.5492 475.298 93.1029 475.298 93.7773H474.026C474.026 93.431 473.878 93.1325 473.582 92.8818C473.29 92.6312 472.921 92.5059 472.475 92.5059C472.014 92.5059 471.654 92.6061 471.395 92.8066C471.135 93.0072 471.005 93.2692 471.005 93.5928C471.005 93.8981 471.126 94.1283 471.367 94.2832C471.609 94.4382 472.044 94.5863 472.673 94.7275C473.306 94.8688 473.819 95.0374 474.211 95.2334C474.603 95.4294 474.892 95.6663 475.079 95.9443C475.271 96.2178 475.366 96.5527 475.366 96.9492C475.366 97.61 475.102 98.141 474.573 98.542C474.045 98.9385 473.359 99.1367 472.516 99.1367C471.923 99.1367 471.399 99.0319 470.943 98.8223C470.488 98.6126 470.13 98.321 469.87 97.9473C469.615 97.569 469.487 97.1611 469.487 96.7236H470.752C470.775 97.1475 470.943 97.4847 471.258 97.7354C471.577 97.9814 471.996 98.1045 472.516 98.1045C472.994 98.1045 473.377 98.0088 473.664 97.8174C473.956 97.6214 474.102 97.3617 474.102 97.0381ZM478.388 99H477.123V91.6035H478.388V99ZM477.021 89.6416C477.021 89.4365 477.082 89.2633 477.205 89.1221C477.333 88.9808 477.52 88.9102 477.766 88.9102C478.012 88.9102 478.199 88.9808 478.326 89.1221C478.454 89.2633 478.518 89.4365 478.518 89.6416C478.518 89.8467 478.454 90.0176 478.326 90.1543C478.199 90.291 478.012 90.3594 477.766 90.3594C477.52 90.3594 477.333 90.291 477.205 90.1543C477.082 90.0176 477.021 89.8467 477.021 89.6416ZM482.858 97.2842L484.69 91.6035H485.982L483.33 99H482.366L479.687 91.6035H480.979L482.858 97.2842ZM490.173 99.1367C489.17 99.1367 488.354 98.8086 487.726 98.1523C487.097 97.4915 486.782 96.6097 486.782 95.5068V95.2744C486.782 94.5407 486.921 93.8867 487.199 93.3125C487.482 92.7337 487.874 92.2826 488.375 91.959C488.881 91.6309 489.428 91.4668 490.016 91.4668C490.977 91.4668 491.725 91.7835 492.258 92.417C492.791 93.0505 493.058 93.9574 493.058 95.1377V95.6641H488.047C488.065 96.3932 488.277 96.9834 488.683 97.4346C489.093 97.8812 489.612 98.1045 490.241 98.1045C490.688 98.1045 491.066 98.0133 491.376 97.8311C491.686 97.6488 491.957 97.4072 492.189 97.1064L492.962 97.708C492.342 98.6605 491.412 99.1367 490.173 99.1367ZM490.016 92.5059C489.505 92.5059 489.077 92.6927 488.73 93.0664C488.384 93.4355 488.17 93.9551 488.088 94.625H491.793V94.5293C491.757 93.8867 491.583 93.39 491.273 93.0391C490.964 92.6836 490.544 92.5059 490.016 92.5059ZM501.069 99.1367C500.067 99.1367 499.251 98.8086 498.622 98.1523C497.993 97.4915 497.679 96.6097 497.679 95.5068V95.2744C497.679 94.5407 497.818 93.8867 498.096 93.3125C498.378 92.7337 498.77 92.2826 499.271 91.959C499.777 91.6309 500.324 91.4668 500.912 91.4668C501.874 91.4668 502.621 91.7835 503.154 92.417C503.688 93.0505 503.954 93.9574 503.954 95.1377V95.6641H498.943C498.962 96.3932 499.174 96.9834 499.579 97.4346C499.989 97.8812 500.509 98.1045 501.138 98.1045C501.584 98.1045 501.963 98.0133 502.272 97.8311C502.582 97.6488 502.854 97.4072 503.086 97.1064L503.858 97.708C503.239 98.6605 502.309 99.1367 501.069 99.1367ZM500.912 92.5059C500.402 92.5059 499.973 92.6927 499.627 93.0664C499.281 93.4355 499.066 93.9551 498.984 94.625H502.689V94.5293C502.653 93.8867 502.48 93.39 502.17 93.0391C501.86 92.6836 501.441 92.5059 500.912 92.5059ZM506.62 91.6035L506.661 92.5332C507.226 91.8223 507.965 91.4668 508.876 91.4668C510.439 91.4668 511.228 92.3486 511.241 94.1123V99H509.977V94.1055C509.972 93.5723 509.849 93.1781 509.607 92.9229C509.37 92.6676 508.999 92.54 508.493 92.54C508.083 92.54 507.723 92.6494 507.413 92.8682C507.103 93.0869 506.862 93.374 506.688 93.7295V99H505.424V91.6035H506.62ZM514.413 92.499C514.974 91.8109 515.703 91.4668 516.601 91.4668C518.164 91.4668 518.952 92.3486 518.966 94.1123V99H517.701V94.1055C517.697 93.5723 517.574 93.1781 517.332 92.9229C517.095 92.6676 516.724 92.54 516.218 92.54C515.808 92.54 515.448 92.6494 515.138 92.8682C514.828 93.0869 514.586 93.374 514.413 93.7295V99H513.148V88.5H514.413V92.499ZM525.426 99C525.353 98.8542 525.294 98.5944 525.248 98.2207C524.66 98.8314 523.958 99.1367 523.143 99.1367C522.413 99.1367 521.814 98.9316 521.345 98.5215C520.88 98.1068 520.647 97.5827 520.647 96.9492C520.647 96.179 520.939 95.582 521.522 95.1582C522.11 94.7298 522.935 94.5156 523.997 94.5156H525.228V93.9346C525.228 93.4925 525.095 93.1416 524.831 92.8818C524.567 92.6175 524.177 92.4854 523.662 92.4854C523.211 92.4854 522.833 92.5993 522.527 92.8271C522.222 93.055 522.069 93.3307 522.069 93.6543H520.798C520.798 93.2852 520.928 92.9297 521.188 92.5879C521.452 92.2415 521.807 91.9681 522.254 91.7676C522.705 91.5671 523.2 91.4668 523.737 91.4668C524.59 91.4668 525.257 91.681 525.74 92.1094C526.223 92.5332 526.474 93.1188 526.492 93.8662V97.2705C526.492 97.9495 526.579 98.4896 526.752 98.8906V99H525.426ZM523.327 98.0361C523.724 98.0361 524.1 97.9336 524.455 97.7285C524.811 97.5234 525.068 97.2568 525.228 96.9287V95.4111H524.236C522.687 95.4111 521.912 95.8646 521.912 96.7715C521.912 97.168 522.044 97.4779 522.309 97.7012C522.573 97.9245 522.912 98.0361 523.327 98.0361ZM529.671 91.6035L529.712 92.5332C530.277 91.8223 531.015 91.4668 531.927 91.4668C533.49 91.4668 534.278 92.3486 534.292 94.1123V99H533.027V94.1055C533.023 93.5723 532.9 93.1781 532.658 92.9229C532.421 92.6676 532.05 92.54 531.544 92.54C531.134 92.54 530.774 92.6494 530.464 92.8682C530.154 93.0869 529.912 93.374 529.739 93.7295V99H528.475V91.6035H529.671ZM539.166 98.1045C539.617 98.1045 540.011 97.9678 540.349 97.6943C540.686 97.4209 540.873 97.0791 540.909 96.6689H542.105C542.083 97.0928 541.937 97.4961 541.668 97.8789C541.399 98.2617 541.039 98.5671 540.588 98.7949C540.141 99.0228 539.667 99.1367 539.166 99.1367C538.159 99.1367 537.357 98.8018 536.76 98.1318C536.167 97.4574 535.871 96.5368 535.871 95.3701V95.1582C535.871 94.4382 536.003 93.7979 536.268 93.2373C536.532 92.6768 536.91 92.2415 537.402 91.9316C537.899 91.6217 538.485 91.4668 539.159 91.4668C539.989 91.4668 540.677 91.7152 541.224 92.2119C541.775 92.7087 542.069 93.3535 542.105 94.1465H540.909C540.873 93.668 540.69 93.276 540.362 92.9707C540.039 92.6608 539.638 92.5059 539.159 92.5059C538.517 92.5059 538.018 92.7383 537.662 93.2031C537.311 93.6634 537.136 94.3311 537.136 95.2061V95.4453C537.136 96.2975 537.311 96.9538 537.662 97.4141C538.013 97.8743 538.514 98.1045 539.166 98.1045ZM546.597 99.1367C545.594 99.1367 544.778 98.8086 544.149 98.1523C543.521 97.4915 543.206 96.6097 543.206 95.5068V95.2744C543.206 94.5407 543.345 93.8867 543.623 93.3125C543.906 92.7337 544.298 92.2826 544.799 91.959C545.305 91.6309 545.852 91.4668 546.439 91.4668C547.401 91.4668 548.148 91.7835 548.682 92.417C549.215 93.0505 549.481 93.9574 549.481 95.1377V95.6641H544.471C544.489 96.3932 544.701 96.9834 545.106 97.4346C545.517 97.8812 546.036 98.1045 546.665 98.1045C547.112 98.1045 547.49 98.0133 547.8 97.8311C548.11 97.6488 548.381 97.4072 548.613 97.1064L549.386 97.708C548.766 98.6605 547.836 99.1367 546.597 99.1367ZM546.439 92.5059C545.929 92.5059 545.501 92.6927 545.154 93.0664C544.808 93.4355 544.594 93.9551 544.512 94.625H548.217V94.5293C548.18 93.8867 548.007 93.39 547.697 93.0391C547.387 92.6836 546.968 92.5059 546.439 92.5059ZM552.141 91.6035L552.175 92.4238C552.717 91.7858 553.449 91.4668 554.369 91.4668C555.404 91.4668 556.108 91.8633 556.481 92.6562C556.728 92.3008 557.047 92.0137 557.438 91.7949C557.835 91.5762 558.302 91.4668 558.84 91.4668C560.462 91.4668 561.287 92.3258 561.314 94.0439V99H560.05V94.1191C560.05 93.5905 559.929 93.1963 559.688 92.9365C559.446 92.6722 559.04 92.54 558.471 92.54C558.001 92.54 557.612 92.6813 557.302 92.9639C556.992 93.2419 556.812 93.6178 556.762 94.0918V99H555.49V94.1533C555.49 93.0778 554.964 92.54 553.911 92.54C553.082 92.54 552.514 92.8932 552.209 93.5996V99H550.944V91.6035H552.141ZM566.298 99.1367C565.295 99.1367 564.479 98.8086 563.851 98.1523C563.222 97.4915 562.907 96.6097 562.907 95.5068V95.2744C562.907 94.5407 563.046 93.8867 563.324 93.3125C563.607 92.7337 563.999 92.2826 564.5 91.959C565.006 91.6309 565.553 91.4668 566.141 91.4668C567.102 91.4668 567.85 91.7835 568.383 92.417C568.916 93.0505 569.183 93.9574 569.183 95.1377V95.6641H564.172C564.19 96.3932 564.402 96.9834 564.808 97.4346C565.218 97.8812 565.737 98.1045 566.366 98.1045C566.813 98.1045 567.191 98.0133 567.501 97.8311C567.811 97.6488 568.082 97.4072 568.314 97.1064L569.087 97.708C568.467 98.6605 567.537 99.1367 566.298 99.1367ZM566.141 92.5059C565.63 92.5059 565.202 92.6927 564.855 93.0664C564.509 93.4355 564.295 93.9551 564.213 94.625H567.918V94.5293C567.882 93.8867 567.708 93.39 567.398 93.0391C567.089 92.6836 566.669 92.5059 566.141 92.5059ZM571.849 91.6035L571.89 92.5332C572.455 91.8223 573.193 91.4668 574.104 91.4668C575.668 91.4668 576.456 92.3486 576.47 94.1123V99H575.205V94.1055C575.201 93.5723 575.077 93.1781 574.836 92.9229C574.599 92.6676 574.228 92.54 573.722 92.54C573.312 92.54 572.951 92.6494 572.642 92.8682C572.332 93.0869 572.09 93.374 571.917 93.7295V99H570.652V91.6035H571.849ZM580.093 89.8125V91.6035H581.474V92.5811H580.093V97.168C580.093 97.4642 580.154 97.6875 580.277 97.8379C580.4 97.9837 580.61 98.0566 580.906 98.0566C581.052 98.0566 581.253 98.0293 581.508 97.9746V99C581.175 99.0911 580.852 99.1367 580.537 99.1367C579.972 99.1367 579.546 98.9658 579.259 98.624C578.972 98.2822 578.828 97.7969 578.828 97.168V92.5811H577.481V91.6035H578.828V89.8125H580.093Z" fill="black"/>
<path d="M814.207 62.7071C814.598 62.3166 814.598 61.6834 814.207 61.2929L807.843 54.9289C807.453 54.5384 806.819 54.5384 806.429 54.9289C806.038 55.3195 806.038 55.9526 806.429 56.3431L812.086 62L806.429 67.6569C806.038 68.0474 806.038 68.6805 806.429 69.0711C806.819 69.4616 807.453 69.4616 807.843 69.0711L814.207 62.7071ZM191 63H813.5V61H191V63Z" fill="#18A0FB"/>
<path d="M49.2929 60.2929C48.9024 60.6834 48.9024 61.3166 49.2929 61.7071L55.6568 68.0711C56.0474 68.4616 56.6805 68.4616 57.0711 68.0711C57.4616 67.6805 57.4616 67.0474 57.0711 66.6568L51.4142 61L57.0711 55.3431C57.4616 54.9526 57.4616 54.3194 57.0711 53.9289C56.6805 53.5384 56.0474 53.5384 55.6568 53.9289L49.2929 60.2929ZM158 60L50 60L50 62L158 62L158 60Z" fill="#FB5432"/>
<circle cx="54" cy="32" r="5" fill="#C4C4C4"/>
<circle cx="176" cy="32" r="5" fill="#C4C4C4"/>
<circle cx="308" cy="32" r="5" fill="#C4C4C4"/>
<circle cx="461" cy="32" r="5" fill="#C4C4C4"/>
<circle cx="640" cy="32" r="5" fill="#C4C4C4"/>
<circle cx="809" cy="32" r="5" fill="#C4C4C4"/>
</g>
<defs>
<clipPath id="clip0">
<rect width="879" height="107" fill="white"/>
</clipPath>
</defs>
</svg>
